M48
; DRILL file {KiCad 8.0.8} date 2025-03-04T12:01:59-0500
; FORMAT={-:-/ absolute / inch / decimal}
; #@! TF.CreationDate,2025-03-04T12:01:59-05:00
; #@! TF.GenerationSoftware,Kicad,Pcbnew,8.0.8
; #@! TF.FileFunction,Plated,1,2,PTH
FMAT,2
INCH
; #@! TA.AperFunction,Plated,PTH,ViaDrill
T1C0.0256
; #@! TA.AperFunction,Plated,PTH,ComponentDrill
T2C0.0300
; #@! TA.AperFunction,Plated,PTH,ComponentDrill
T3C0.0315
; #@! TA.AperFunction,Plated,PTH,ComponentDrill
T4C0.0354
; #@! TA.AperFunction,Plated,PTH,ComponentDrill
T5C0.0394
; #@! TA.AperFunction,Plated,PTH,ComponentDrill
T6C0.0402
; #@! TA.AperFunction,Plated,PTH,ComponentDrill
T7C0.0598
; #@! TA.AperFunction,Plated,PTH,ComponentDrill
T8C0.0787
%
G90
G05
T1
X2.8937Y-2.3819
X3.2087Y-2.0472
T2
X2.3287Y-4.4067
X2.4287Y-4.4067
X2.5287Y-4.4067
X2.6287Y-4.4067
X2.7287Y-4.4067
X2.8287Y-4.4067
T3
X3.2087Y-1.9094
X3.2874Y-1.9094
X3.3661Y-1.9094
X3.4449Y-1.9094
X5.3346Y-3.2087
X5.4134Y-3.2087
X5.4921Y-3.2087
X5.5709Y-3.2087
T4
X2.5708Y-2.2835
X2.5708Y-2.3819
X2.5708Y-2.4803
X3.722Y-3.878
X4.122Y-3.878
T5
X4.3378Y-3.8823
X4.3378Y-4.5823
X5.9378Y-3.8823
X5.9378Y-4.5823
T6
X3.8976Y-1.6911
X3.8976Y-1.7911
X3.8976Y-1.8911
X3.8976Y-1.9911
X3.8976Y-2.0911
X3.8976Y-2.1911
X3.8976Y-2.2911
X3.8976Y-2.3911
X3.8976Y-2.4911
X3.8976Y-2.5911
X3.8976Y-2.6911
X3.8976Y-2.7911
X3.8976Y-2.8911
X3.8976Y-2.9911
X3.8976Y-3.0911
X4.8976Y-1.6911
X4.8976Y-1.7911
X4.8976Y-1.8911
X4.8976Y-1.9911
X4.8976Y-2.0911
X4.8976Y-2.1911
X4.8976Y-2.2911
X4.8976Y-2.3911
X4.8976Y-2.4911
X4.8976Y-2.5911
X4.8976Y-2.6911
X4.8976Y-2.7911
X4.8976Y-2.8911
X4.8976Y-2.9911
X4.8976Y-3.0911
T7
X5.9843Y-3.2071
X5.9843Y-3.4071
T8
X2.8937Y-5.2165
X2.8937Y-6.0433
X5.7283Y-5.2165
X5.7283Y-6.0433
T5
G00X2.5591Y-3.0332
M15
G01X2.5591Y-3.1119
M16
G05
G00X2.6378Y-3.2576
M15
G01X2.7165Y-3.2576
M16
G05
G00X2.7953Y-3.0332
M15
G01X2.7953Y-3.1119
M16
G05
M30
