%TF.GenerationSoftware,KiCad,Pcbnew,8.0.8*%
%TF.CreationDate,2025-03-04T12:02:19-05:00*%
%TF.ProjectId,Proyecto PCB,50726f79-6563-4746-9f20-5043422e6b69,rev?*%
%TF.SameCoordinates,Original*%
%TF.FileFunction,Copper,L2,Bot*%
%TF.FilePolarity,Positive*%
%FSLAX46Y46*%
G04 Gerber Fmt 4.6, Leading zero omitted, Abs format (unit mm)*
G04 Created by KiCad (PCBNEW 8.0.8) date 2025-03-04 12:02:19*
%MOMM*%
%LPD*%
G01*
G04 APERTURE LIST*
G04 Aperture macros list*
%AMRoundRect*
0 Rectangle with rounded corners*
0 $1 Rounding radius*
0 $2 $3 $4 $5 $6 $7 $8 $9 X,Y pos of 4 corners*
0 Add a 4 corners polygon primitive as box body*
4,1,4,$2,$3,$4,$5,$6,$7,$8,$9,$2,$3,0*
0 Add four circle primitives for the rounded corners*
1,1,$1+$1,$2,$3*
1,1,$1+$1,$4,$5*
1,1,$1+$1,$6,$7*
1,1,$1+$1,$8,$9*
0 Add four rect primitives between the rounded corners*
20,1,$1+$1,$2,$3,$4,$5,0*
20,1,$1+$1,$4,$5,$6,$7,0*
20,1,$1+$1,$6,$7,$8,$9,0*
20,1,$1+$1,$8,$9,$2,$3,0*%
G04 Aperture macros list end*
%TA.AperFunction,ComponentPad*%
%ADD10R,3.500000X3.500000*%
%TD*%
%TA.AperFunction,ComponentPad*%
%ADD11RoundRect,0.750000X-0.750000X-1.000000X0.750000X-1.000000X0.750000X1.000000X-0.750000X1.000000X0*%
%TD*%
%TA.AperFunction,ComponentPad*%
%ADD12RoundRect,0.875000X-0.875000X-0.875000X0.875000X-0.875000X0.875000X0.875000X-0.875000X0.875000X0*%
%TD*%
%TA.AperFunction,ComponentPad*%
%ADD13R,1.350000X1.350000*%
%TD*%
%TA.AperFunction,ComponentPad*%
%ADD14O,1.350000X1.350000*%
%TD*%
%TA.AperFunction,ComponentPad*%
%ADD15R,1.800000X1.800000*%
%TD*%
%TA.AperFunction,ComponentPad*%
%ADD16O,1.800000X1.800000*%
%TD*%
%TA.AperFunction,ComponentPad*%
%ADD17C,1.524000*%
%TD*%
%TA.AperFunction,ComponentPad*%
%ADD18R,3.000000X3.000000*%
%TD*%
%TA.AperFunction,ComponentPad*%
%ADD19C,3.000000*%
%TD*%
%TA.AperFunction,ComponentPad*%
%ADD20C,3.500000*%
%TD*%
%TA.AperFunction,ComponentPad*%
%ADD21R,2.000000X2.000000*%
%TD*%
%TA.AperFunction,ComponentPad*%
%ADD22C,2.000000*%
%TD*%
%TA.AperFunction,ComponentPad*%
%ADD23R,1.408000X1.408000*%
%TD*%
%TA.AperFunction,ComponentPad*%
%ADD24C,1.408000*%
%TD*%
%TA.AperFunction,ComponentPad*%
%ADD25R,2.540000X2.540000*%
%TD*%
%TA.AperFunction,ComponentPad*%
%ADD26C,2.540000*%
%TD*%
%TA.AperFunction,ViaPad*%
%ADD27C,1.300000*%
%TD*%
%TA.AperFunction,Conductor*%
%ADD28C,1.000000*%
%TD*%
%TA.AperFunction,Conductor*%
%ADD29C,0.600000*%
%TD*%
G04 APERTURE END LIST*
D10*
%TO.P,J3,1*%
%TO.N,VDC*%
X71000000Y-78042500D03*
D11*
%TO.P,J3,2*%
%TO.N,GND*%
X65000000Y-78042500D03*
D12*
%TO.P,J3,3*%
X68000000Y-82742500D03*
%TD*%
D13*
%TO.P,J1,1,Pin_1*%
%TO.N,+5V*%
X135500000Y-81500000D03*
D14*
%TO.P,J1,2,Pin_2*%
%TO.N,/TX*%
X137500000Y-81500000D03*
%TO.P,J1,3,Pin_3*%
%TO.N,/RX*%
X139500000Y-81500000D03*
%TO.P,J1,4,Pin_4*%
%TO.N,GND*%
X141500000Y-81500000D03*
%TD*%
D15*
%TO.P,D1,1,K*%
%TO.N,Net-(D1-K)*%
X104700000Y-98500000D03*
D16*
%TO.P,D1,2,A*%
%TO.N,+5V*%
X94540000Y-98500000D03*
%TD*%
D17*
%TO.P,U2,1,VIN*%
%TO.N,VDC*%
X59150000Y-111930000D03*
%TO.P,U2,2,GND*%
%TO.N,GND*%
X61690000Y-111930000D03*
%TO.P,U2,3,GND*%
X64230000Y-111930000D03*
%TO.P,U2,4,BAT*%
%TO.N,+BATT*%
X66770000Y-111930000D03*
%TO.P,U2,5,GND*%
%TO.N,GND*%
X69310000Y-111930000D03*
%TO.P,U2,6,OUT-5V*%
%TO.N,Net-(U2-OUT-5V)*%
X71850000Y-111930000D03*
%TD*%
D18*
%TO.P,J2,1,Pin_1*%
%TO.N,+12V*%
X152000000Y-86540000D03*
D19*
%TO.P,J2,2,Pin_2*%
%TO.N,GND*%
X152000000Y-81460000D03*
%TD*%
D10*
%TO.P,BT2,1,+*%
%TO.N,+BATT*%
X73500000Y-153500000D03*
D20*
%TO.P,BT2,2,-*%
%TO.N,GND*%
X145500000Y-153500000D03*
%TD*%
D21*
%TO.P,U1,1,3V3*%
%TO.N,unconnected-(U1-3V3-Pad1)*%
X124400000Y-78515000D03*
D22*
%TO.P,U1,2,GND*%
%TO.N,GND*%
X124400000Y-75975000D03*
%TO.P,U1,3,D15*%
%TO.N,unconnected-(U1-D15-Pad3)*%
X124400000Y-73435000D03*
%TO.P,U1,4,D2*%
%TO.N,unconnected-(U1-D2-Pad4)*%
X124400000Y-70895000D03*
%TO.P,U1,5,D4*%
%TO.N,unconnected-(U1-D4-Pad5)*%
X124400000Y-68355000D03*
%TO.P,U1,6,RX2*%
%TO.N,unconnected-(U1-RX2-Pad6)*%
X124400000Y-65815000D03*
%TO.P,U1,7,TX2*%
%TO.N,unconnected-(U1-TX2-Pad7)*%
X124400000Y-63275000D03*
%TO.P,U1,8,D5*%
%TO.N,unconnected-(U1-D5-Pad8)*%
X124400000Y-60735000D03*
%TO.P,U1,9,D18*%
%TO.N,unconnected-(U1-D18-Pad9)*%
X124400000Y-58195000D03*
%TO.P,U1,10,D19*%
%TO.N,unconnected-(U1-D19-Pad10)*%
X124400000Y-55655000D03*
%TO.P,U1,11,D21*%
%TO.N,unconnected-(U1-D21-Pad11)*%
X124400000Y-53115000D03*
%TO.P,U1,12,RX0*%
%TO.N,/TX*%
X124400000Y-50575000D03*
%TO.P,U1,13,TX0*%
%TO.N,/RX*%
X124400000Y-48035000D03*
%TO.P,U1,14,D22*%
%TO.N,unconnected-(U1-D22-Pad14)*%
X124400000Y-45495000D03*
%TO.P,U1,15,D23*%
%TO.N,unconnected-(U1-D23-Pad15)*%
X124400000Y-42955000D03*
%TO.P,U1,16,EN*%
%TO.N,unconnected-(U1-EN-Pad16)*%
X99000000Y-42955000D03*
%TO.P,U1,17,VP*%
%TO.N,unconnected-(U1-VP-Pad17)*%
X99000000Y-45495000D03*
%TO.P,U1,18,VN*%
%TO.N,unconnected-(U1-VN-Pad18)*%
X99000000Y-48035000D03*
%TO.P,U1,19,D34*%
%TO.N,unconnected-(U1-D34-Pad19)*%
X99000000Y-50575000D03*
%TO.P,U1,20,D35*%
%TO.N,unconnected-(U1-D35-Pad20)*%
X99000000Y-53115000D03*
%TO.P,U1,21,D32*%
%TO.N,unconnected-(U1-D32-Pad21)*%
X99000000Y-55655000D03*
%TO.P,U1,22,D33*%
%TO.N,unconnected-(U1-D33-Pad22)*%
X99000000Y-58195000D03*
%TO.P,U1,23,D25*%
%TO.N,/To*%
X99000000Y-60735000D03*
%TO.P,U1,24,D26*%
%TO.N,/Po*%
X99000000Y-63275000D03*
%TO.P,U1,25,D27*%
%TO.N,unconnected-(U1-D27-Pad25)*%
X99000000Y-65815000D03*
%TO.P,U1,26,D14*%
%TO.N,unconnected-(U1-D14-Pad26)*%
X99000000Y-68355000D03*
%TO.P,U1,27,D12*%
%TO.N,unconnected-(U1-D12-Pad27)*%
X99000000Y-70895000D03*
%TO.P,U1,28,D13*%
%TO.N,unconnected-(U1-D13-Pad28)*%
X99000000Y-73435000D03*
%TO.P,U1,29,GND*%
%TO.N,GND*%
X99000000Y-75975000D03*
%TO.P,U1,30,VIN*%
%TO.N,+5V*%
X99000000Y-78515000D03*
%TD*%
D13*
%TO.P,J4,1,Pin_1*%
%TO.N,+5V*%
X81500000Y-48500000D03*
D14*
%TO.P,J4,2,Pin_2*%
%TO.N,/Po*%
X83500000Y-48500000D03*
%TO.P,J4,3,Pin_3*%
%TO.N,/To*%
X85500000Y-48500000D03*
%TO.P,J4,4,Pin_4*%
%TO.N,GND*%
X87500000Y-48500000D03*
%TD*%
D23*
%TO.P,S1,1*%
%TO.N,unconnected-(S1-Pad1)*%
X65297500Y-58000000D03*
D24*
%TO.P,S1,2*%
%TO.N,Net-(U2-OUT-5V)*%
X65297500Y-60500000D03*
%TO.P,S1,3*%
%TO.N,+5V*%
X65297500Y-63000000D03*
%TD*%
D10*
%TO.P,BT1,1,+*%
%TO.N,+BATT*%
X73500000Y-132500000D03*
D20*
%TO.P,BT1,2,-*%
%TO.N,GND*%
X145500000Y-132500000D03*
%TD*%
D25*
%TO.P,J6,1,Pin_1*%
%TO.N,Net-(D1-K)*%
X110180000Y-98610000D03*
D26*
%TO.P,J6,2,Pin_2*%
%TO.N,GND*%
X110180000Y-116390000D03*
%TO.P,J6,3,Pin_3*%
X150820000Y-116390000D03*
%TO.P,J6,4,Pin_4*%
%TO.N,+12V*%
X150820000Y-98610000D03*
%TD*%
D27*
%TO.N,+5V*%
X81500000Y-52000000D03*
X73500000Y-60500000D03*
%TD*%
D28*
%TO.N,+BATT*%
X68500000Y-151500000D02*
X70500000Y-153500000D01*
X68500000Y-130000000D02*
X71000000Y-132500000D01*
X66770000Y-111930000D02*
X66770000Y-117770000D01*
X68500000Y-130000000D02*
X68500000Y-151500000D01*
X70500000Y-153500000D02*
X73500000Y-153500000D01*
X66770000Y-117770000D02*
X68500000Y-119500000D01*
X68500000Y-119500000D02*
X68500000Y-130000000D01*
X71000000Y-132500000D02*
X73500000Y-132500000D01*
D29*
%TO.N,/RX*%
X133035000Y-48035000D02*
X124400000Y-48035000D01*
X139500000Y-54500000D02*
X133035000Y-48035000D01*
X139500000Y-81500000D02*
X139500000Y-54500000D01*
%TO.N,/TX*%
X131575000Y-50575000D02*
X124400000Y-50575000D01*
X137500000Y-56500000D02*
X131575000Y-50575000D01*
X137500000Y-81500000D02*
X137500000Y-56500000D01*
D28*
%TO.N,+5V*%
X95000000Y-92000000D02*
X92000000Y-92000000D01*
X95000000Y-78530000D02*
X95015000Y-78515000D01*
X81500000Y-52000000D02*
X81500000Y-48500000D01*
X71000000Y-63000000D02*
X73500000Y-60500000D01*
X71000000Y-63000000D02*
X79500000Y-63000000D01*
X90500000Y-93500000D02*
X90500000Y-97000000D01*
X135500000Y-87500000D02*
X135500000Y-81500000D01*
X79500000Y-63000000D02*
X95015000Y-78515000D01*
X92000000Y-98500000D02*
X94540000Y-98500000D01*
X92000000Y-92000000D02*
X90500000Y-93500000D01*
X131000000Y-92000000D02*
X135500000Y-87500000D01*
X95000000Y-92000000D02*
X95000000Y-78530000D01*
X131000000Y-92000000D02*
X95000000Y-92000000D01*
X95015000Y-78515000D02*
X99000000Y-78515000D01*
X90500000Y-97000000D02*
X92000000Y-98500000D01*
X65297500Y-63000000D02*
X71000000Y-63000000D01*
%TO.N,+12V*%
X152000000Y-92500000D02*
X152000000Y-86540000D01*
X150820000Y-98610000D02*
X150820000Y-93680000D01*
X150820000Y-93680000D02*
X152000000Y-92500000D01*
%TO.N,VDC*%
X75042500Y-78042500D02*
X71000000Y-78042500D01*
X59150000Y-102350000D02*
X77000000Y-84500000D01*
X77000000Y-80000000D02*
X75042500Y-78042500D01*
X59150000Y-111930000D02*
X59150000Y-102350000D01*
X77000000Y-84500000D02*
X77000000Y-80000000D01*
D29*
%TO.N,Net-(U2-OUT-5V)*%
X62148750Y-64148750D02*
X62148750Y-62351250D01*
X71850000Y-104650000D02*
X81500000Y-95000000D01*
X81500000Y-95000000D02*
X81500000Y-74000000D01*
X71850000Y-111930000D02*
X71850000Y-104650000D01*
X64000000Y-60500000D02*
X65297500Y-60500000D01*
X69000000Y-71000000D02*
X62148750Y-64148750D01*
X62148750Y-62351250D02*
X64000000Y-60500000D01*
X78500000Y-71000000D02*
X69000000Y-71000000D01*
X81500000Y-74000000D02*
X78500000Y-71000000D01*
%TO.N,/Po*%
X92775000Y-63275000D02*
X99000000Y-63275000D01*
X83500000Y-54000000D02*
X92775000Y-63275000D01*
X83500000Y-48500000D02*
X83500000Y-54000000D01*
%TO.N,/To*%
X85500000Y-48500000D02*
X85500000Y-53500000D01*
X92735000Y-60735000D02*
X99000000Y-60735000D01*
X85500000Y-53500000D02*
X92735000Y-60735000D01*
%TO.N,Net-(D1-K)*%
X104700000Y-98500000D02*
X110070000Y-98500000D01*
X110070000Y-98500000D02*
X110180000Y-98610000D01*
%TD*%
%TA.AperFunction,Conductor*%
%TO.N,GND*%
G36*
X101443039Y-37020185D02*
G01*
X101488794Y-37072989D01*
X101500000Y-37124500D01*
X101500000Y-45500000D01*
X122000000Y-45500000D01*
X122000000Y-39788379D01*
X122019685Y-39721340D01*
X122072489Y-39675585D01*
X122141647Y-39665641D01*
X122205203Y-39694666D01*
X122242977Y-39753444D01*
X122246938Y-39772191D01*
X122259452Y-39867238D01*
X122259453Y-39867240D01*
X122318842Y-40088887D01*
X122406650Y-40300876D01*
X122406657Y-40300890D01*
X122521392Y-40499617D01*
X122661081Y-40681661D01*
X122661089Y-40681670D01*
X122823330Y-40843911D01*
X122823335Y-40843915D01*
X122823339Y-40843919D01*
X122865568Y-40876323D01*
X123005382Y-40983607D01*
X123005385Y-40983608D01*
X123005388Y-40983611D01*
X123204112Y-41098344D01*
X123204117Y-41098346D01*
X123204123Y-41098349D01*
X123220467Y-41105119D01*
X123274871Y-41148959D01*
X123296936Y-41215253D01*
X123279657Y-41282953D01*
X123247325Y-41318947D01*
X123086612Y-41439254D01*
X123086594Y-41439270D01*
X122884270Y-41641594D01*
X122884254Y-41641612D01*
X122712775Y-41870682D01*
X122712770Y-41870690D01*
X122575635Y-42121833D01*
X122475628Y-42389962D01*
X122414804Y-42669566D01*
X122394390Y-42954998D01*
X122394390Y-42955001D01*
X122414804Y-43240433D01*
X122475628Y-43520037D01*
X122575635Y-43788166D01*
X122712770Y-44039309D01*
X122796148Y-44150690D01*
X122820564Y-44216155D01*
X122805712Y-44284428D01*
X122796148Y-44299310D01*
X122712770Y-44410690D01*
X122575635Y-44661833D01*
X122475628Y-44929962D01*
X122414804Y-45209566D01*
X122394390Y-45494998D01*
X122394390Y-45495001D01*
X122414804Y-45780433D01*
X122475628Y-46060037D01*
X122575635Y-46328166D01*
X122712770Y-46579309D01*
X122712771Y-46579310D01*
X122712774Y-46579315D01*
X122774679Y-46662011D01*
X122796148Y-46690690D01*
X122820564Y-46756155D01*
X122805712Y-46824428D01*
X122796150Y-46839306D01*
X122779215Y-46861930D01*
X122712770Y-46950690D01*
X122575635Y-47201833D01*
X122475628Y-47469962D01*
X122414804Y-47749566D01*
X122394390Y-48034998D01*
X122394390Y-48035001D01*
X122414804Y-48320433D01*
X122475628Y-48600037D01*
X122475630Y-48600043D01*
X122475631Y-48600046D01*
X122531718Y-48750421D01*
X122575635Y-48868166D01*
X122712770Y-49119309D01*
X122796148Y-49230690D01*
X122820564Y-49296155D01*
X122805712Y-49364428D01*
X122796148Y-49379310D01*
X122712770Y-49490690D01*
X122575635Y-49741833D01*
X122475628Y-50009962D01*
X122414804Y-50289566D01*
X122394390Y-50574998D01*
X122394390Y-50575001D01*
X122414804Y-50860433D01*
X122475628Y-51140037D01*
X122475630Y-51140043D01*
X122475631Y-51140046D01*
X122547356Y-51332348D01*
X122575635Y-51408166D01*
X122712770Y-51659309D01*
X122796148Y-51770690D01*
X122820564Y-51836155D01*
X122805712Y-51904428D01*
X122796148Y-51919310D01*
X122712770Y-52030690D01*
X122575635Y-52281833D01*
X122475628Y-52549962D01*
X122414804Y-52829566D01*
X122394390Y-53114998D01*
X122394390Y-53115001D01*
X122414804Y-53400433D01*
X122475628Y-53680037D01*
X122575635Y-53948166D01*
X122712770Y-54199309D01*
X122796148Y-54310690D01*
X122820564Y-54376155D01*
X122805712Y-54444428D01*
X122796150Y-54459306D01*
X122766271Y-54499221D01*
X122712770Y-54570690D01*
X122575635Y-54821833D01*
X122475628Y-55089962D01*
X122414804Y-55369566D01*
X122394390Y-55654998D01*
X122394390Y-55655001D01*
X122414804Y-55940433D01*
X122475628Y-56220037D01*
X122475630Y-56220043D01*
X122475631Y-56220046D01*
X122528611Y-56362091D01*
X122575635Y-56488166D01*
X122712770Y-56739309D01*
X122796148Y-56850690D01*
X122820564Y-56916155D01*
X122805712Y-56984428D01*
X122796148Y-56999310D01*
X122712770Y-57110690D01*
X122575635Y-57361833D01*
X122475628Y-57629962D01*
X122414804Y-57909566D01*
X122394390Y-58194998D01*
X122394390Y-58195001D01*
X122414804Y-58480433D01*
X122475628Y-58760037D01*
X122475630Y-58760043D01*
X122475631Y-58760046D01*
X122574397Y-59024846D01*
X122575635Y-59028166D01*
X122712770Y-59279309D01*
X122712771Y-59279310D01*
X122712774Y-59279315D01*
X122759134Y-59341245D01*
X122796148Y-59390690D01*
X122820564Y-59456155D01*
X122805712Y-59524428D01*
X122796148Y-59539310D01*
X122712770Y-59650690D01*
X122575635Y-59901833D01*
X122475628Y-60169962D01*
X122414804Y-60449566D01*
X122394390Y-60734998D01*
X122394390Y-60735001D01*
X122414804Y-61020433D01*
X122475628Y-61300037D01*
X122475630Y-61300043D01*
X122475631Y-61300046D01*
X122540192Y-61473140D01*
X122575635Y-61568166D01*
X122712770Y-61819309D01*
X122712771Y-61819310D01*
X122712774Y-61819315D01*
X122737265Y-61852031D01*
X122796148Y-61930690D01*
X122820564Y-61996155D01*
X122805712Y-62064428D01*
X122796148Y-62079310D01*
X122712770Y-62190690D01*
X122575635Y-62441833D01*
X122475628Y-62709962D01*
X122414804Y-62989566D01*
X122394390Y-63274998D01*
X122394390Y-63275001D01*
X122414804Y-63560433D01*
X122475628Y-63840037D01*
X122475630Y-63840043D01*
X122475631Y-63840046D01*
X122552597Y-64046398D01*
X122575635Y-64108166D01*
X122712770Y-64359309D01*
X122712771Y-64359310D01*
X122712774Y-64359315D01*
X122783115Y-64453280D01*
X122796148Y-64470690D01*
X122820564Y-64536155D01*
X122805712Y-64604428D01*
X122796150Y-64619306D01*
X122748132Y-64683451D01*
X122712770Y-64730690D01*
X122575635Y-64981833D01*
X122475628Y-65249962D01*
X122414804Y-65529566D01*
X122394390Y-65814998D01*
X122394390Y-65815001D01*
X122414804Y-66100433D01*
X122475628Y-66380037D01*
X122575635Y-66648166D01*
X122712770Y-66899309D01*
X122796148Y-67010690D01*
X122820564Y-67076155D01*
X122805712Y-67144428D01*
X122796148Y-67159310D01*
X122712770Y-67270690D01*
X122575635Y-67521833D01*
X122475628Y-67789962D01*
X122414804Y-68069566D01*
X122394390Y-68354998D01*
X122394390Y-68355001D01*
X122414804Y-68640433D01*
X122475628Y-68920037D01*
X122575635Y-69188166D01*
X122712770Y-69439309D01*
X122796148Y-69550690D01*
X122820564Y-69616155D01*
X122805712Y-69684428D01*
X122796150Y-69699306D01*
X122748132Y-69763451D01*
X122712770Y-69810690D01*
X122575635Y-70061833D01*
X122475628Y-70329962D01*
X122414804Y-70609566D01*
X122394390Y-70894998D01*
X122394390Y-70895001D01*
X122414804Y-71180433D01*
X122475628Y-71460037D01*
X122575635Y-71728166D01*
X122712770Y-71979309D01*
X122712771Y-71979310D01*
X122712774Y-71979315D01*
X122722249Y-71991972D01*
X122796148Y-72090690D01*
X122820564Y-72156155D01*
X122805712Y-72224428D01*
X122796150Y-72239306D01*
X122774314Y-72268477D01*
X122712770Y-72350690D01*
X122575635Y-72601833D01*
X122475628Y-72869962D01*
X122414804Y-73149566D01*
X122394390Y-73434998D01*
X122394390Y-73435001D01*
X122414804Y-73720433D01*
X122475628Y-74000037D01*
X122575635Y-74268166D01*
X122712770Y-74519309D01*
X122712775Y-74519317D01*
X122884254Y-74748387D01*
X122884270Y-74748405D01*
X123086594Y-74950729D01*
X123086612Y-74950745D01*
X123315682Y-75122224D01*
X123315690Y-75122229D01*
X123566833Y-75259364D01*
X123566832Y-75259364D01*
X123566836Y-75259365D01*
X123566839Y-75259367D01*
X123834954Y-75359369D01*
X123834960Y-75359370D01*
X123834962Y-75359371D01*
X124114566Y-75420195D01*
X124114568Y-75420195D01*
X124114572Y-75420196D01*
X124368220Y-75438337D01*
X124399999Y-75440610D01*
X124400000Y-75440610D01*
X124400001Y-75440610D01*
X124428595Y-75438564D01*
X124685428Y-75420196D01*
X124965046Y-75359369D01*
X125233161Y-75259367D01*
X125484315Y-75122226D01*
X125713395Y-74950739D01*
X125915739Y-74748395D01*
X126087226Y-74519315D01*
X126224367Y-74268161D01*
X126324369Y-74000046D01*
X126385196Y-73720428D01*
X126405610Y-73435000D01*
X126385196Y-73149572D01*
X126354406Y-73008034D01*
X126324371Y-72869962D01*
X126324370Y-72869960D01*
X126324369Y-72869954D01*
X126224367Y-72601839D01*
X126087226Y-72350685D01*
X126003849Y-72239307D01*
X125979434Y-72173847D01*
X125994285Y-72105574D01*
X126003841Y-72090703D01*
X126087226Y-71979315D01*
X126224367Y-71728161D01*
X126324369Y-71460046D01*
X126385196Y-71180428D01*
X126405610Y-70895000D01*
X126385196Y-70609572D01*
X126324369Y-70329954D01*
X126224367Y-70061839D01*
X126224364Y-70061833D01*
X126087229Y-69810689D01*
X126086916Y-69810271D01*
X126003849Y-69699307D01*
X125979434Y-69633847D01*
X125994285Y-69565574D01*
X126003841Y-69550703D01*
X126087226Y-69439315D01*
X126224367Y-69188161D01*
X126324369Y-68920046D01*
X126385196Y-68640428D01*
X126405610Y-68355000D01*
X126385196Y-68069572D01*
X126324369Y-67789954D01*
X126224367Y-67521839D01*
X126087226Y-67270685D01*
X126003849Y-67159307D01*
X125979434Y-67093847D01*
X125994285Y-67025574D01*
X126003841Y-67010703D01*
X126087226Y-66899315D01*
X126224367Y-66648161D01*
X126324369Y-66380046D01*
X126385196Y-66100428D01*
X126405610Y-65815000D01*
X126385196Y-65529572D01*
X126324369Y-65249954D01*
X126224367Y-64981839D01*
X126141653Y-64830361D01*
X126087229Y-64730690D01*
X126087228Y-64730689D01*
X126087226Y-64730685D01*
X126003849Y-64619307D01*
X125979434Y-64553847D01*
X125994285Y-64485574D01*
X126003841Y-64470703D01*
X126087226Y-64359315D01*
X126224367Y-64108161D01*
X126324369Y-63840046D01*
X126324371Y-63840037D01*
X126385195Y-63560433D01*
X126385195Y-63560432D01*
X126385196Y-63560428D01*
X126405610Y-63275000D01*
X126385196Y-62989572D01*
X126324369Y-62709954D01*
X126224367Y-62441839D01*
X126119013Y-62248899D01*
X126087229Y-62190690D01*
X126087228Y-62190689D01*
X126087226Y-62190685D01*
X126003849Y-62079307D01*
X125979434Y-62013847D01*
X125994285Y-61945574D01*
X126003841Y-61930703D01*
X126087226Y-61819315D01*
X126224367Y-61568161D01*
X126324369Y-61300046D01*
X126337077Y-61241628D01*
X126385195Y-61020433D01*
X126385195Y-61020432D01*
X126385196Y-61020428D01*
X126405610Y-60735000D01*
X126385196Y-60449572D01*
X126339825Y-60241006D01*
X126324371Y-60169962D01*
X126324370Y-60169960D01*
X126324369Y-60169954D01*
X126224367Y-59901839D01*
X126146028Y-59758373D01*
X126087229Y-59650690D01*
X126087228Y-59650689D01*
X126087226Y-59650685D01*
X126003849Y-59539307D01*
X125979434Y-59473847D01*
X125994285Y-59405574D01*
X126003841Y-59390703D01*
X126087226Y-59279315D01*
X126224367Y-59028161D01*
X126324369Y-58760046D01*
X126385196Y-58480428D01*
X126405610Y-58195000D01*
X126385196Y-57909572D01*
X126324369Y-57629954D01*
X126224367Y-57361839D01*
X126156726Y-57237965D01*
X126087229Y-57110690D01*
X126087228Y-57110689D01*
X126087226Y-57110685D01*
X126003849Y-56999307D01*
X125979434Y-56933847D01*
X125994285Y-56865574D01*
X126003841Y-56850703D01*
X126087226Y-56739315D01*
X126224367Y-56488161D01*
X126324369Y-56220046D01*
X126385196Y-55940428D01*
X126405610Y-55655000D01*
X126385196Y-55369572D01*
X126383182Y-55360315D01*
X126324371Y-55089962D01*
X126324370Y-55089960D01*
X126324369Y-55089954D01*
X126224367Y-54821839D01*
X126147796Y-54681611D01*
X126087229Y-54570690D01*
X126087228Y-54570689D01*
X126087226Y-54570685D01*
X126003849Y-54459307D01*
X125979434Y-54393847D01*
X125994285Y-54325574D01*
X126003841Y-54310703D01*
X126087226Y-54199315D01*
X126224367Y-53948161D01*
X126324369Y-53680046D01*
X126329686Y-53655603D01*
X126385195Y-53400433D01*
X126385195Y-53400432D01*
X126385196Y-53400428D01*
X126405610Y-53115000D01*
X126385196Y-52829572D01*
X126368240Y-52751628D01*
X126324371Y-52549962D01*
X126324370Y-52549960D01*
X126324369Y-52549954D01*
X126224367Y-52281839D01*
X126211893Y-52258994D01*
X126102648Y-52058927D01*
X126087796Y-51990654D01*
X126112213Y-51925190D01*
X126168146Y-51883318D01*
X126211480Y-51875500D01*
X130984953Y-51875500D01*
X131051992Y-51895185D01*
X131072634Y-51911819D01*
X136163181Y-57002366D01*
X136196666Y-57063689D01*
X136199500Y-57090047D01*
X136199500Y-79700500D01*
X136179815Y-79767539D01*
X136127011Y-79813294D01*
X136075500Y-79824500D01*
X134766971Y-79824500D01*
X134766965Y-79824500D01*
X134766964Y-79824501D01*
X134755316Y-79825536D01*
X134647584Y-79835113D01*
X134451954Y-79891089D01*
X134361772Y-79938196D01*
X134271593Y-79985302D01*
X134271591Y-79985303D01*
X134271590Y-79985304D01*
X134113890Y-80113890D01*
X133985304Y-80271590D01*
X133985302Y-80271593D01*
X133949900Y-80339367D01*
X133891089Y-80451954D01*
X133835114Y-80647583D01*
X133835113Y-80647586D01*
X133824500Y-80766966D01*
X133824500Y-82233028D01*
X133824501Y-82233034D01*
X133835113Y-82352415D01*
X133891090Y-82548047D01*
X133985409Y-82728612D01*
X133999500Y-82786023D01*
X133999500Y-86827111D01*
X133979815Y-86894150D01*
X133963181Y-86914792D01*
X130414792Y-90463181D01*
X130353469Y-90496666D01*
X130327111Y-90499500D01*
X96624500Y-90499500D01*
X96557461Y-90479815D01*
X96511706Y-90427011D01*
X96500500Y-90375500D01*
X96500500Y-86360258D01*
X97719500Y-86360258D01*
X97719500Y-86589741D01*
X97744446Y-86779215D01*
X97749452Y-86817238D01*
X97775591Y-86914792D01*
X97808842Y-87038887D01*
X97896650Y-87250876D01*
X97896657Y-87250890D01*
X98011392Y-87449617D01*
X98151081Y-87631661D01*
X98151089Y-87631670D01*
X98313330Y-87793911D01*
X98313338Y-87793918D01*
X98495382Y-87933607D01*
X98495385Y-87933608D01*
X98495388Y-87933611D01*
X98694112Y-88048344D01*
X98694117Y-88048346D01*
X98694123Y-88048349D01*
X98785480Y-88086190D01*
X98906113Y-88136158D01*
X99127762Y-88195548D01*
X99355266Y-88225500D01*
X99355273Y-88225500D01*
X99584727Y-88225500D01*
X99584734Y-88225500D01*
X99812238Y-88195548D01*
X100033887Y-88136158D01*
X100245888Y-88048344D01*
X100444612Y-87933611D01*
X100626661Y-87793919D01*
X100626665Y-87793914D01*
X100626670Y-87793911D01*
X100788911Y-87631670D01*
X100788914Y-87631665D01*
X100788919Y-87631661D01*
X100928611Y-87449612D01*
X101043344Y-87250888D01*
X101131158Y-87038887D01*
X101190548Y-86817238D01*
X101220500Y-86589734D01*
X101220500Y-86360266D01*
X101220499Y-86360258D01*
X122229500Y-86360258D01*
X122229500Y-86589741D01*
X122254446Y-86779215D01*
X122259452Y-86817238D01*
X122285591Y-86914792D01*
X122318842Y-87038887D01*
X122406650Y-87250876D01*
X122406657Y-87250890D01*
X122521392Y-87449617D01*
X122661081Y-87631661D01*
X122661089Y-87631670D01*
X122823330Y-87793911D01*
X122823338Y-87793918D01*
X123005382Y-87933607D01*
X123005385Y-87933608D01*
X123005388Y-87933611D01*
X123204112Y-88048344D01*
X123204117Y-88048346D01*
X123204123Y-88048349D01*
X123295480Y-88086190D01*
X123416113Y-88136158D01*
X123637762Y-88195548D01*
X123865266Y-88225500D01*
X123865273Y-88225500D01*
X124094727Y-88225500D01*
X124094734Y-88225500D01*
X124322238Y-88195548D01*
X124543887Y-88136158D01*
X124755888Y-88048344D01*
X124954612Y-87933611D01*
X125136661Y-87793919D01*
X125136665Y-87793914D01*
X125136670Y-87793911D01*
X125298911Y-87631670D01*
X125298914Y-87631665D01*
X125298919Y-87631661D01*
X125438611Y-87449612D01*
X125553344Y-87250888D01*
X125641158Y-87038887D01*
X125700548Y-86817238D01*
X125730500Y-86589734D01*
X125730500Y-86360266D01*
X125700548Y-86132762D01*
X125641158Y-85911113D01*
X125553344Y-85699112D01*
X125438611Y-85500388D01*
X125438608Y-85500385D01*
X125438607Y-85500382D01*
X125298918Y-85318338D01*
X125298911Y-85318330D01*
X125136670Y-85156089D01*
X125136661Y-85156081D01*
X124954617Y-85016392D01*
X124755890Y-84901657D01*
X124755876Y-84901650D01*
X124543887Y-84813842D01*
X124322238Y-84754452D01*
X124284215Y-84749446D01*
X124094741Y-84724500D01*
X124094734Y-84724500D01*
X123865266Y-84724500D01*
X123865258Y-84724500D01*
X123648715Y-84753009D01*
X123637762Y-84754452D01*
X123544076Y-84779554D01*
X123416112Y-84813842D01*
X123204123Y-84901650D01*
X123204109Y-84901657D01*
X123005382Y-85016392D01*
X122823338Y-85156081D01*
X122661081Y-85318338D01*
X122521392Y-85500382D01*
X122406657Y-85699109D01*
X122406650Y-85699123D01*
X122318842Y-85911112D01*
X122259453Y-86132759D01*
X122259451Y-86132770D01*
X122229500Y-86360258D01*
X101220499Y-86360258D01*
X101190548Y-86132762D01*
X101131158Y-85911113D01*
X101043344Y-85699112D01*
X100928611Y-85500388D01*
X100928608Y-85500385D01*
X100928607Y-85500382D01*
X100788918Y-85318338D01*
X100788911Y-85318330D01*
X100626670Y-85156089D01*
X100626661Y-85156081D01*
X100444617Y-85016392D01*
X100245890Y-84901657D01*
X100245876Y-84901650D01*
X100033887Y-84813842D01*
X99812238Y-84754452D01*
X99774215Y-84749446D01*
X99584741Y-84724500D01*
X99584734Y-84724500D01*
X99355266Y-84724500D01*
X99355258Y-84724500D01*
X99138715Y-84753009D01*
X99127762Y-84754452D01*
X99034076Y-84779554D01*
X98906112Y-84813842D01*
X98694123Y-84901650D01*
X98694109Y-84901657D01*
X98495382Y-85016392D01*
X98313338Y-85156081D01*
X98151081Y-85318338D01*
X98011392Y-85500382D01*
X97896657Y-85699109D01*
X97896650Y-85699123D01*
X97808842Y-85911112D01*
X97749453Y-86132759D01*
X97749451Y-86132770D01*
X97719500Y-86360258D01*
X96500500Y-86360258D01*
X96500500Y-80139500D01*
X96520185Y-80072461D01*
X96572989Y-80026706D01*
X96624500Y-80015500D01*
X97624977Y-80015500D01*
X97692016Y-80035185D01*
X97699287Y-80040233D01*
X97915682Y-80202224D01*
X97915690Y-80202229D01*
X98166833Y-80339364D01*
X98166832Y-80339364D01*
X98166836Y-80339365D01*
X98166839Y-80339367D01*
X98434954Y-80439369D01*
X98434960Y-80439370D01*
X98434962Y-80439371D01*
X98714566Y-80500195D01*
X98714568Y-80500195D01*
X98714572Y-80500196D01*
X98968220Y-80518337D01*
X98999999Y-80520610D01*
X99000000Y-80520610D01*
X99000001Y-80520610D01*
X99028595Y-80518564D01*
X99285428Y-80500196D01*
X99390202Y-80477404D01*
X99565037Y-80439371D01*
X99565037Y-80439370D01*
X99565046Y-80439369D01*
X99833161Y-80339367D01*
X100084315Y-80202226D01*
X100313395Y-80030739D01*
X100515739Y-79828395D01*
X100687226Y-79599315D01*
X100824367Y-79348161D01*
X100924369Y-79080046D01*
X100985196Y-78800428D01*
X101005610Y-78515000D01*
X100985196Y-78229572D01*
X100924369Y-77949954D01*
X100824367Y-77681839D01*
X100701579Y-77456971D01*
X100701576Y-77456966D01*
X122399500Y-77456966D01*
X122399500Y-79573028D01*
X122399501Y-79573034D01*
X122410113Y-79692415D01*
X122466089Y-79888045D01*
X122466090Y-79888048D01*
X122466091Y-79888049D01*
X122560302Y-80068407D01*
X122560304Y-80068409D01*
X122688890Y-80226109D01*
X122782803Y-80302684D01*
X122846593Y-80354698D01*
X123026951Y-80448909D01*
X123222582Y-80504886D01*
X123341963Y-80515500D01*
X125458036Y-80515499D01*
X125577418Y-80504886D01*
X125773049Y-80448909D01*
X125953407Y-80354698D01*
X126111109Y-80226109D01*
X126239698Y-80068407D01*
X126333909Y-79888049D01*
X126389886Y-79692418D01*
X126400500Y-79573037D01*
X126400499Y-77456964D01*
X126389886Y-77337582D01*
X126333909Y-77141951D01*
X126239698Y-76961593D01*
X126130584Y-76827775D01*
X126111109Y-76803890D01*
X125953409Y-76675304D01*
X125953410Y-76675304D01*
X125953407Y-76675302D01*
X125773049Y-76581091D01*
X125773048Y-76581090D01*
X125773045Y-76581089D01*
X125655829Y-76547550D01*
X125577418Y-76525114D01*
X125577415Y-76525113D01*
X125577413Y-76525113D01*
X125511102Y-76519217D01*
X125458037Y-76514500D01*
X125458032Y-76514500D01*
X123341971Y-76514500D01*
X123341965Y-76514500D01*
X123341964Y-76514501D01*
X123330316Y-76515536D01*
X123222584Y-76525113D01*
X123026954Y-76581089D01*
X122936772Y-76628196D01*
X122846593Y-76675302D01*
X122846591Y-76675303D01*
X122846590Y-76675304D01*
X122688890Y-76803890D01*
X122560304Y-76961590D01*
X122560302Y-76961593D01*
X122540630Y-76999254D01*
X122466089Y-77141954D01*
X122410114Y-77337583D01*
X122410113Y-77337586D01*
X122399500Y-77456966D01*
X100701576Y-77456966D01*
X100687229Y-77430690D01*
X100687224Y-77430682D01*
X100515745Y-77201612D01*
X100515729Y-77201594D01*
X100313405Y-76999270D01*
X100313387Y-76999254D01*
X100084317Y-76827775D01*
X100084309Y-76827770D01*
X99833166Y-76690635D01*
X99833167Y-76690635D01*
X99725915Y-76650632D01*
X99565046Y-76590631D01*
X99565043Y-76590630D01*
X99565037Y-76590628D01*
X99285433Y-76529804D01*
X99000001Y-76509390D01*
X98999999Y-76509390D01*
X98714566Y-76529804D01*
X98434962Y-76590628D01*
X98166833Y-76690635D01*
X97915690Y-76827770D01*
X97915682Y-76827775D01*
X97699287Y-76989767D01*
X97633823Y-77014184D01*
X97624977Y-77014500D01*
X95687889Y-77014500D01*
X95620850Y-76994815D01*
X95600208Y-76978181D01*
X80477511Y-61855484D01*
X80472758Y-61852031D01*
X80286434Y-61716657D01*
X80194152Y-61669637D01*
X80075996Y-61609433D01*
X79851368Y-61536446D01*
X79618097Y-61499500D01*
X79618092Y-61499500D01*
X75044676Y-61499500D01*
X74977637Y-61479815D01*
X74931882Y-61427011D01*
X74921938Y-61357853D01*
X74938949Y-61310710D01*
X74975154Y-61251628D01*
X74979297Y-61241626D01*
X75074573Y-61011610D01*
X75135221Y-60758994D01*
X75155604Y-60500000D01*
X75135221Y-60241006D01*
X75074573Y-59988390D01*
X74975154Y-59748372D01*
X74839412Y-59526860D01*
X74670689Y-59329311D01*
X74473140Y-59160588D01*
X74251628Y-59024846D01*
X74251627Y-59024845D01*
X74251623Y-59024843D01*
X74085627Y-58956086D01*
X74011610Y-58925427D01*
X74011611Y-58925427D01*
X73828300Y-58881418D01*
X73758994Y-58864779D01*
X73758992Y-58864778D01*
X73758991Y-58864778D01*
X73500000Y-58844396D01*
X73241009Y-58864778D01*
X72988389Y-58925427D01*
X72748376Y-59024843D01*
X72526859Y-59160588D01*
X72329311Y-59329311D01*
X72160588Y-59526859D01*
X72024844Y-59748374D01*
X71960209Y-59904414D01*
X71933330Y-59944641D01*
X70414792Y-61463181D01*
X70353469Y-61496666D01*
X70327111Y-61499500D01*
X66903399Y-61499500D01*
X66836360Y-61479815D01*
X66790605Y-61427011D01*
X66780661Y-61357853D01*
X66796012Y-61313500D01*
X66799977Y-61306631D01*
X66837507Y-61241628D01*
X66930841Y-61003819D01*
X66987688Y-60754755D01*
X67006779Y-60500000D01*
X66987688Y-60245245D01*
X66930841Y-59996181D01*
X66837507Y-59758372D01*
X66712470Y-59541800D01*
X66695997Y-59473900D01*
X66718850Y-59407873D01*
X66723755Y-59401439D01*
X66732520Y-59390690D01*
X66841198Y-59257407D01*
X66935409Y-59077049D01*
X66991386Y-58881418D01*
X67002000Y-58762037D01*
X67001999Y-57237964D01*
X66991386Y-57118582D01*
X66935409Y-56922951D01*
X66841198Y-56742593D01*
X66789184Y-56678803D01*
X66712609Y-56584890D01*
X66554909Y-56456304D01*
X66554910Y-56456304D01*
X66554907Y-56456302D01*
X66374549Y-56362091D01*
X66374548Y-56362090D01*
X66374545Y-56362089D01*
X66257329Y-56328550D01*
X66178918Y-56306114D01*
X66178915Y-56306113D01*
X66178913Y-56306113D01*
X66112602Y-56300217D01*
X66059537Y-56295500D01*
X66059532Y-56295500D01*
X64535471Y-56295500D01*
X64535465Y-56295500D01*
X64535464Y-56295501D01*
X64523816Y-56296536D01*
X64416084Y-56306113D01*
X64220454Y-56362089D01*
X64130272Y-56409196D01*
X64040093Y-56456302D01*
X64040091Y-56456303D01*
X64040090Y-56456304D01*
X63882390Y-56584890D01*
X63753804Y-56742590D01*
X63659589Y-56922954D01*
X63626475Y-57038685D01*
X63605873Y-57110689D01*
X63603614Y-57118583D01*
X63603613Y-57118586D01*
X63593000Y-57237966D01*
X63593000Y-58762028D01*
X63593001Y-58762034D01*
X63603613Y-58881415D01*
X63659589Y-59077045D01*
X63659590Y-59077048D01*
X63659591Y-59077049D01*
X63665865Y-59089060D01*
X63679456Y-59157594D01*
X63653837Y-59222597D01*
X63597141Y-59263431D01*
X63594275Y-59264401D01*
X63500781Y-59294779D01*
X63409584Y-59341245D01*
X63409585Y-59341246D01*
X63318388Y-59387713D01*
X63293805Y-59405574D01*
X63242150Y-59443104D01*
X63242149Y-59443105D01*
X63152784Y-59508030D01*
X61156786Y-61504028D01*
X61036466Y-61669634D01*
X61036464Y-61669637D01*
X61011300Y-61719025D01*
X60943531Y-61852028D01*
X60943530Y-61852030D01*
X60943530Y-61852031D01*
X60932121Y-61887145D01*
X60880272Y-62046717D01*
X60875110Y-62079311D01*
X60861901Y-62162713D01*
X60848250Y-62248898D01*
X60848250Y-64046398D01*
X60848250Y-64251102D01*
X60861755Y-64336368D01*
X60880272Y-64453280D01*
X60880273Y-64453287D01*
X60885928Y-64470689D01*
X60889025Y-64480220D01*
X60934218Y-64619311D01*
X60943533Y-64647978D01*
X60957218Y-64674835D01*
X60957219Y-64674835D01*
X61036463Y-64830361D01*
X61156784Y-64995969D01*
X61156785Y-64995970D01*
X61156786Y-64995971D01*
X68004908Y-71844092D01*
X68004922Y-71844107D01*
X68008033Y-71847218D01*
X68008034Y-71847219D01*
X68152781Y-71991966D01*
X68152784Y-71991968D01*
X68152788Y-71991972D01*
X68288663Y-72090689D01*
X68318390Y-72112287D01*
X68437620Y-72173038D01*
X68500781Y-72205221D01*
X68500784Y-72205222D01*
X68598124Y-72236849D01*
X68695466Y-72268477D01*
X68897648Y-72300500D01*
X68897649Y-72300500D01*
X69102352Y-72300500D01*
X77909953Y-72300500D01*
X77976992Y-72320185D01*
X77997634Y-72336819D01*
X80163181Y-74502365D01*
X80196666Y-74563688D01*
X80199500Y-74590046D01*
X80199500Y-94409953D01*
X80179815Y-94476992D01*
X80163181Y-94497634D01*
X70858036Y-103802778D01*
X70737713Y-103968388D01*
X70691246Y-104059585D01*
X70691245Y-104059584D01*
X70644779Y-104150781D01*
X70644779Y-104150782D01*
X70581523Y-104345461D01*
X70581523Y-104345464D01*
X70549500Y-104547648D01*
X70549500Y-110690554D01*
X70529815Y-110757593D01*
X70522447Y-110767866D01*
X70389673Y-110934360D01*
X70257591Y-111163133D01*
X70257589Y-111163137D01*
X70161080Y-111409036D01*
X70161077Y-111409046D01*
X70102298Y-111666575D01*
X70102298Y-111666577D01*
X70082558Y-111929995D01*
X70082558Y-111930004D01*
X70102298Y-112193422D01*
X70102298Y-112193424D01*
X70161077Y-112450953D01*
X70161080Y-112450963D01*
X70257590Y-112696864D01*
X70389671Y-112925636D01*
X70522699Y-113092449D01*
X70554376Y-113132170D01*
X70737176Y-113301782D01*
X70748018Y-113311842D01*
X70966279Y-113460650D01*
X70966284Y-113460652D01*
X70966285Y-113460653D01*
X70966286Y-113460654D01*
X71092688Y-113521525D01*
X71204277Y-113575263D01*
X71204278Y-113575263D01*
X71204281Y-113575265D01*
X71456707Y-113653129D01*
X71456708Y-113653129D01*
X71456711Y-113653130D01*
X71717911Y-113692499D01*
X71717916Y-113692499D01*
X71717919Y-113692500D01*
X71717920Y-113692500D01*
X71982080Y-113692500D01*
X71982081Y-113692500D01*
X71982088Y-113692499D01*
X72243288Y-113653130D01*
X72243289Y-113653129D01*
X72243293Y-113653129D01*
X72495719Y-113575265D01*
X72733721Y-113460650D01*
X72951982Y-113311842D01*
X73145627Y-113132166D01*
X73310329Y-112925636D01*
X73442410Y-112696864D01*
X73538920Y-112450963D01*
X73597701Y-112193424D01*
X73617442Y-111930000D01*
X73597701Y-111666576D01*
X73538920Y-111409037D01*
X73442410Y-111163136D01*
X73310329Y-110934364D01*
X73310326Y-110934360D01*
X73177553Y-110767866D01*
X73151144Y-110703180D01*
X73150500Y-110690554D01*
X73150500Y-105240045D01*
X73170185Y-105173006D01*
X73186814Y-105152369D01*
X82340150Y-95999032D01*
X82340157Y-95999027D01*
X82347217Y-95991967D01*
X82347219Y-95991966D01*
X82491966Y-95847219D01*
X82586824Y-95716657D01*
X82612287Y-95681611D01*
X82686251Y-95536447D01*
X82705220Y-95499219D01*
X82768477Y-95304534D01*
X82800500Y-95102352D01*
X82800500Y-73897648D01*
X82768477Y-73695466D01*
X82722473Y-73553879D01*
X82705221Y-73500782D01*
X82705221Y-73500781D01*
X82612285Y-73318386D01*
X82610655Y-73316144D01*
X82610645Y-73316116D01*
X82610639Y-73316121D01*
X82491969Y-73152785D01*
X82491968Y-73152784D01*
X82491966Y-73152781D01*
X82347219Y-73008034D01*
X82347218Y-73008033D01*
X82344107Y-73004922D01*
X82344092Y-73004908D01*
X79347221Y-70008036D01*
X79347220Y-70008035D01*
X79347219Y-70008034D01*
X79181611Y-69887713D01*
X79030434Y-69810685D01*
X79030434Y-69810684D01*
X79010011Y-69800279D01*
X78999219Y-69794780D01*
X78876281Y-69754835D01*
X78876280Y-69754834D01*
X78804532Y-69731522D01*
X78649220Y-69706923D01*
X78602352Y-69699500D01*
X78602351Y-69699500D01*
X69590046Y-69699500D01*
X69523007Y-69679815D01*
X69502365Y-69663181D01*
X64675589Y-64836404D01*
X64642104Y-64775081D01*
X64647088Y-64705389D01*
X64688960Y-64649456D01*
X64754424Y-64625039D01*
X64799817Y-64630231D01*
X64917150Y-64666424D01*
X65169765Y-64704500D01*
X65169766Y-64704500D01*
X65425234Y-64704500D01*
X65425235Y-64704500D01*
X65677850Y-64666424D01*
X65921970Y-64591123D01*
X66084652Y-64512779D01*
X66138452Y-64500500D01*
X70881908Y-64500500D01*
X78827111Y-64500500D01*
X78894150Y-64520185D01*
X78914792Y-64536819D01*
X93463181Y-79085208D01*
X93496666Y-79146531D01*
X93499500Y-79172889D01*
X93499500Y-90375500D01*
X93479815Y-90442539D01*
X93427011Y-90488294D01*
X93375500Y-90499500D01*
X91881903Y-90499500D01*
X91648631Y-90536446D01*
X91424003Y-90609433D01*
X91213565Y-90716657D01*
X91022488Y-90855484D01*
X89355484Y-92522488D01*
X89216659Y-92713562D01*
X89216658Y-92713564D01*
X89179530Y-92786433D01*
X89109433Y-92924003D01*
X89036446Y-93148631D01*
X88999500Y-93381902D01*
X88999500Y-97118097D01*
X89036446Y-97351368D01*
X89109433Y-97575996D01*
X89192617Y-97739253D01*
X89216657Y-97786434D01*
X89355483Y-97977510D01*
X91022490Y-99644517D01*
X91213566Y-99783343D01*
X91285873Y-99820185D01*
X91333066Y-99844231D01*
X91424003Y-99890566D01*
X91424005Y-99890566D01*
X91424008Y-99890568D01*
X91528440Y-99924500D01*
X91648631Y-99963553D01*
X91881903Y-100000500D01*
X91881908Y-100000500D01*
X93331843Y-100000500D01*
X93398882Y-100020185D01*
X93406153Y-100025233D01*
X93509884Y-100102885D01*
X93509892Y-100102890D01*
X93748481Y-100233169D01*
X93748480Y-100233169D01*
X93748484Y-100233170D01*
X93748487Y-100233172D01*
X94003199Y-100328175D01*
X94268840Y-100385961D01*
X94520605Y-100403967D01*
X94539999Y-100405355D01*
X94540000Y-100405355D01*
X94540001Y-100405355D01*
X94558100Y-100404060D01*
X94811160Y-100385961D01*
X95076801Y-100328175D01*
X95331513Y-100233172D01*
X95331517Y-100233169D01*
X95331519Y-100233169D01*
X95555055Y-100111109D01*
X95570113Y-100102887D01*
X95787742Y-99939971D01*
X95979971Y-99747742D01*
X96142887Y-99530113D01*
X96273172Y-99291513D01*
X96368175Y-99036801D01*
X96425961Y-98771160D01*
X96445355Y-98500000D01*
X96425961Y-98228840D01*
X96368175Y-97963199D01*
X96273172Y-97708487D01*
X96273170Y-97708484D01*
X96273169Y-97708480D01*
X96182245Y-97541966D01*
X102799500Y-97541966D01*
X102799500Y-99458028D01*
X102799501Y-99458034D01*
X102810113Y-99577415D01*
X102866089Y-99773045D01*
X102866090Y-99773048D01*
X102866091Y-99773049D01*
X102960302Y-99953407D01*
X102960304Y-99953409D01*
X103088890Y-100111109D01*
X103182803Y-100187684D01*
X103246593Y-100239698D01*
X103426951Y-100333909D01*
X103622582Y-100389886D01*
X103741963Y-100400500D01*
X105658036Y-100400499D01*
X105777418Y-100389886D01*
X105973049Y-100333909D01*
X106153407Y-100239698D01*
X106311109Y-100111109D01*
X106439698Y-99953407D01*
X106460043Y-99914457D01*
X106484788Y-99867088D01*
X106533275Y-99816781D01*
X106594696Y-99800500D01*
X107785501Y-99800500D01*
X107852540Y-99820185D01*
X107898295Y-99872989D01*
X107909501Y-99924500D01*
X107909501Y-99938036D01*
X107910868Y-99953409D01*
X107920113Y-100057415D01*
X107976089Y-100253045D01*
X107976090Y-100253048D01*
X107976091Y-100253049D01*
X108070302Y-100433407D01*
X108070304Y-100433409D01*
X108198890Y-100591109D01*
X108292803Y-100667684D01*
X108356593Y-100719698D01*
X108536951Y-100813909D01*
X108732582Y-100869886D01*
X108851963Y-100880500D01*
X111508036Y-100880499D01*
X111627418Y-100869886D01*
X111823049Y-100813909D01*
X112003407Y-100719698D01*
X112161109Y-100591109D01*
X112289698Y-100433407D01*
X112383909Y-100253049D01*
X112439886Y-100057418D01*
X112450500Y-99938037D01*
X112450499Y-98610000D01*
X148544628Y-98610000D01*
X148564094Y-98906994D01*
X148564096Y-98907006D01*
X148622158Y-99198904D01*
X148622161Y-99198918D01*
X148717828Y-99480742D01*
X148717837Y-99480763D01*
X148849465Y-99747678D01*
X148849468Y-99747682D01*
X148849470Y-99747686D01*
X148913979Y-99844231D01*
X149014824Y-99995157D01*
X149211068Y-100218931D01*
X149434842Y-100415175D01*
X149496499Y-100456372D01*
X149682314Y-100580530D01*
X149682318Y-100580532D01*
X149682321Y-100580534D01*
X149949236Y-100712162D01*
X149949241Y-100712164D01*
X149949253Y-100712170D01*
X150231090Y-100807841D01*
X150523004Y-100865906D01*
X150820000Y-100885372D01*
X151116996Y-100865906D01*
X151408910Y-100807841D01*
X151690747Y-100712170D01*
X151957686Y-100580530D01*
X152205159Y-100415174D01*
X152428931Y-100218931D01*
X152625174Y-99995159D01*
X152790530Y-99747686D01*
X152922170Y-99480747D01*
X153017841Y-99198910D01*
X153075906Y-98906996D01*
X153095372Y-98610000D01*
X153075906Y-98313004D01*
X153017841Y-98021090D01*
X152922170Y-97739253D01*
X152906998Y-97708487D01*
X152790534Y-97472321D01*
X152790532Y-97472318D01*
X152790530Y-97472314D01*
X152643494Y-97252259D01*
X152625175Y-97224842D01*
X152428938Y-97001077D01*
X152428929Y-97001067D01*
X152362740Y-96943020D01*
X152325317Y-96884018D01*
X152320500Y-96849793D01*
X152320500Y-94352889D01*
X152340185Y-94285850D01*
X152356819Y-94265208D01*
X152536819Y-94085208D01*
X153144517Y-93477510D01*
X153283343Y-93286434D01*
X153390568Y-93075992D01*
X153463553Y-92851368D01*
X153485379Y-92713564D01*
X153500500Y-92618097D01*
X153500500Y-89159079D01*
X153520185Y-89092040D01*
X153572989Y-89046285D01*
X153613518Y-89035566D01*
X153677418Y-89029886D01*
X153873049Y-88973909D01*
X154053407Y-88879698D01*
X154211109Y-88751109D01*
X154339698Y-88593407D01*
X154433909Y-88413049D01*
X154489886Y-88217418D01*
X154500500Y-88098037D01*
X154500499Y-84981964D01*
X154489886Y-84862582D01*
X154433909Y-84666951D01*
X154339698Y-84486593D01*
X154254339Y-84381908D01*
X154211109Y-84328890D01*
X154053409Y-84200304D01*
X154053410Y-84200304D01*
X154053407Y-84200302D01*
X153873049Y-84106091D01*
X153873048Y-84106090D01*
X153873045Y-84106089D01*
X153755829Y-84072550D01*
X153677418Y-84050114D01*
X153677415Y-84050113D01*
X153677413Y-84050113D01*
X153611102Y-84044217D01*
X153558037Y-84039500D01*
X153558032Y-84039500D01*
X150441971Y-84039500D01*
X150441965Y-84039500D01*
X150441964Y-84039501D01*
X150430316Y-84040536D01*
X150322584Y-84050113D01*
X150126954Y-84106089D01*
X150036772Y-84153196D01*
X149946593Y-84200302D01*
X149946591Y-84200303D01*
X149946590Y-84200304D01*
X149788890Y-84328890D01*
X149660304Y-84486590D01*
X149566089Y-84666954D01*
X149510114Y-84862583D01*
X149510113Y-84862586D01*
X149499500Y-84981966D01*
X149499500Y-88098028D01*
X149499501Y-88098034D01*
X149510113Y-88217415D01*
X149566089Y-88413045D01*
X149566090Y-88413048D01*
X149566091Y-88413049D01*
X149660302Y-88593407D01*
X149660304Y-88593409D01*
X149788890Y-88751109D01*
X149882803Y-88827684D01*
X149946593Y-88879698D01*
X150126951Y-88973909D01*
X150322582Y-89029886D01*
X150386482Y-89035567D01*
X150451512Y-89061109D01*
X150492412Y-89117757D01*
X150499500Y-89159079D01*
X150499500Y-91827111D01*
X150479815Y-91894150D01*
X150463181Y-91914792D01*
X149675485Y-92702487D01*
X149675484Y-92702488D01*
X149536659Y-92893562D01*
X149536658Y-92893564D01*
X149493886Y-92977510D01*
X149429433Y-93104003D01*
X149356446Y-93328631D01*
X149319500Y-93561902D01*
X149319500Y-96849793D01*
X149299815Y-96916832D01*
X149277260Y-96943020D01*
X149211070Y-97001067D01*
X149211061Y-97001077D01*
X149014824Y-97224842D01*
X148849470Y-97472314D01*
X148849465Y-97472321D01*
X148717837Y-97739236D01*
X148717828Y-97739257D01*
X148622161Y-98021081D01*
X148622158Y-98021095D01*
X148564096Y-98312993D01*
X148564094Y-98313005D01*
X148544628Y-98610000D01*
X112450499Y-98610000D01*
X112450499Y-97281964D01*
X112439886Y-97162582D01*
X112387590Y-96979815D01*
X112383910Y-96966954D01*
X112383909Y-96966953D01*
X112383909Y-96966951D01*
X112289698Y-96786593D01*
X112196117Y-96671825D01*
X112161109Y-96628890D01*
X112003409Y-96500304D01*
X112003410Y-96500304D01*
X112003407Y-96500302D01*
X111823049Y-96406091D01*
X111823048Y-96406090D01*
X111823045Y-96406089D01*
X111705829Y-96372550D01*
X111627418Y-96350114D01*
X111627415Y-96350113D01*
X111627413Y-96350113D01*
X111561102Y-96344217D01*
X111508037Y-96339500D01*
X111508032Y-96339500D01*
X108851971Y-96339500D01*
X108851965Y-96339500D01*
X108851964Y-96339501D01*
X108840316Y-96340536D01*
X108732584Y-96350113D01*
X108536954Y-96406089D01*
X108446772Y-96453196D01*
X108356593Y-96500302D01*
X108356591Y-96500303D01*
X108356590Y-96500304D01*
X108198890Y-96628890D01*
X108070304Y-96786590D01*
X108070302Y-96786593D01*
X107978060Y-96963181D01*
X107976090Y-96966953D01*
X107966326Y-97001077D01*
X107949456Y-97060038D01*
X107935271Y-97109612D01*
X107897904Y-97168649D01*
X107834550Y-97198113D01*
X107816055Y-97199500D01*
X106594696Y-97199500D01*
X106527657Y-97179815D01*
X106484788Y-97132912D01*
X106439699Y-97046595D01*
X106439698Y-97046593D01*
X106368864Y-96959723D01*
X106311109Y-96888890D01*
X106161413Y-96766830D01*
X106153407Y-96760302D01*
X105973049Y-96666091D01*
X105973048Y-96666090D01*
X105973045Y-96666089D01*
X105855829Y-96632550D01*
X105777418Y-96610114D01*
X105777415Y-96610113D01*
X105777413Y-96610113D01*
X105711102Y-96604217D01*
X105658037Y-96599500D01*
X105658032Y-96599500D01*
X103741971Y-96599500D01*
X103741965Y-96599500D01*
X103741964Y-96599501D01*
X103730316Y-96600536D01*
X103622584Y-96610113D01*
X103426954Y-96666089D01*
X103336772Y-96713196D01*
X103246593Y-96760302D01*
X103246591Y-96760303D01*
X103246590Y-96760304D01*
X103088890Y-96888890D01*
X102997415Y-97001077D01*
X102960302Y-97046593D01*
X102915213Y-97132912D01*
X102866089Y-97226954D01*
X102810114Y-97422583D01*
X102810113Y-97422586D01*
X102799500Y-97541966D01*
X96182245Y-97541966D01*
X96142890Y-97469892D01*
X96142889Y-97469891D01*
X96142887Y-97469887D01*
X95979971Y-97252258D01*
X95979966Y-97252253D01*
X95979961Y-97252247D01*
X95787752Y-97060038D01*
X95787746Y-97060033D01*
X95787742Y-97060029D01*
X95570113Y-96897113D01*
X95570108Y-96897110D01*
X95570107Y-96897109D01*
X95331518Y-96766830D01*
X95331519Y-96766830D01*
X95281920Y-96748330D01*
X95076801Y-96671825D01*
X95076794Y-96671823D01*
X95076793Y-96671823D01*
X94811167Y-96614040D01*
X94811160Y-96614039D01*
X94540001Y-96594645D01*
X94539999Y-96594645D01*
X94268839Y-96614039D01*
X94268832Y-96614040D01*
X94003206Y-96671823D01*
X94003202Y-96671824D01*
X94003199Y-96671825D01*
X93875843Y-96719326D01*
X93748480Y-96766830D01*
X93509892Y-96897109D01*
X93509884Y-96897114D01*
X93406153Y-96974767D01*
X93340689Y-96999184D01*
X93331843Y-96999500D01*
X92672889Y-96999500D01*
X92605850Y-96979815D01*
X92585208Y-96963181D01*
X92036819Y-96414792D01*
X92003334Y-96353469D01*
X92000500Y-96327111D01*
X92000500Y-94172889D01*
X92020185Y-94105850D01*
X92036819Y-94085208D01*
X92585208Y-93536819D01*
X92646531Y-93503334D01*
X92672889Y-93500500D01*
X131118097Y-93500500D01*
X131351368Y-93463553D01*
X131575992Y-93390568D01*
X131786434Y-93283343D01*
X131977510Y-93144517D01*
X136644517Y-88477510D01*
X136783343Y-88286434D01*
X136890568Y-88075992D01*
X136963553Y-87851368D01*
X136972653Y-87793911D01*
X137000500Y-87618097D01*
X137000500Y-83263227D01*
X137020185Y-83196188D01*
X137072989Y-83150433D01*
X137142147Y-83140489D01*
X137142574Y-83140552D01*
X137374439Y-83175500D01*
X137374440Y-83175500D01*
X137625560Y-83175500D01*
X137625561Y-83175500D01*
X137873879Y-83138072D01*
X138113845Y-83064052D01*
X138340099Y-82955094D01*
X138430149Y-82893699D01*
X138496628Y-82872199D01*
X138564178Y-82890053D01*
X138569851Y-82893699D01*
X138659901Y-82955094D01*
X138659903Y-82955095D01*
X138659908Y-82955098D01*
X138780070Y-83012964D01*
X138886151Y-83064050D01*
X138886152Y-83064050D01*
X138886155Y-83064052D01*
X139126121Y-83138072D01*
X139374439Y-83175500D01*
X139374440Y-83175500D01*
X139625560Y-83175500D01*
X139625561Y-83175500D01*
X139873879Y-83138072D01*
X140113845Y-83064052D01*
X140340099Y-82955094D01*
X140547586Y-82813632D01*
X140731672Y-82642825D01*
X140888245Y-82446489D01*
X141013806Y-82229011D01*
X141105552Y-81995247D01*
X141161432Y-81750421D01*
X141180198Y-81500000D01*
X141161432Y-81249579D01*
X141105552Y-81004753D01*
X141013806Y-80770989D01*
X141013805Y-80770988D01*
X141013806Y-80770988D01*
X140888245Y-80553511D01*
X140827552Y-80477404D01*
X140801144Y-80412717D01*
X140800500Y-80400092D01*
X140800500Y-54397648D01*
X140768477Y-54195465D01*
X140750215Y-54139261D01*
X140750215Y-54139260D01*
X140705223Y-54000787D01*
X140705221Y-54000781D01*
X140612285Y-53818387D01*
X140602222Y-53804537D01*
X140602220Y-53804534D01*
X140491966Y-53652781D01*
X140347219Y-53508034D01*
X140347218Y-53508033D01*
X140344107Y-53504922D01*
X140344092Y-53504908D01*
X133882221Y-47043036D01*
X133882220Y-47043035D01*
X133882219Y-47043034D01*
X133716611Y-46922713D01*
X133597313Y-46861928D01*
X133534219Y-46829780D01*
X133402236Y-46786896D01*
X133339535Y-46766523D01*
X133339532Y-46766522D01*
X133184220Y-46741923D01*
X133137352Y-46734500D01*
X133137351Y-46734500D01*
X126211480Y-46734500D01*
X126144441Y-46714815D01*
X126098686Y-46662011D01*
X126088742Y-46592853D01*
X126102648Y-46551073D01*
X126224364Y-46328166D01*
X126224367Y-46328161D01*
X126324369Y-46060046D01*
X126385196Y-45780428D01*
X126405610Y-45495000D01*
X126385196Y-45209572D01*
X126324369Y-44929954D01*
X126224367Y-44661839D01*
X126087226Y-44410685D01*
X126003849Y-44299307D01*
X125979434Y-44233847D01*
X125994285Y-44165574D01*
X126003841Y-44150703D01*
X126087226Y-44039315D01*
X126224367Y-43788161D01*
X126324369Y-43520046D01*
X126385196Y-43240428D01*
X126405610Y-42955000D01*
X126385196Y-42669572D01*
X126324369Y-42389954D01*
X126224367Y-42121839D01*
X126087226Y-41870685D01*
X126087224Y-41870682D01*
X125915745Y-41641612D01*
X125915729Y-41641594D01*
X125713405Y-41439270D01*
X125713387Y-41439254D01*
X125484317Y-41267775D01*
X125484309Y-41267770D01*
X125233166Y-41130635D01*
X125164755Y-41105119D01*
X125126581Y-41090880D01*
X125070649Y-41049009D01*
X125046232Y-40983544D01*
X125061084Y-40915272D01*
X125094427Y-40876326D01*
X125136661Y-40843919D01*
X125136667Y-40843913D01*
X125136670Y-40843911D01*
X125298911Y-40681670D01*
X125298914Y-40681665D01*
X125298919Y-40681661D01*
X125438611Y-40499612D01*
X125553344Y-40300888D01*
X125641158Y-40088887D01*
X125698726Y-39874038D01*
X151899500Y-39874038D01*
X151899500Y-40125961D01*
X151938910Y-40374785D01*
X152016760Y-40614383D01*
X152131132Y-40838848D01*
X152279201Y-41042649D01*
X152279205Y-41042654D01*
X152457345Y-41220794D01*
X152457350Y-41220798D01*
X152542900Y-41282953D01*
X152661155Y-41368870D01*
X152799292Y-41439254D01*
X152885616Y-41483239D01*
X152885618Y-41483239D01*
X152885621Y-41483241D01*
X153125215Y-41561090D01*
X153374038Y-41600500D01*
X153374039Y-41600500D01*
X153625961Y-41600500D01*
X153625962Y-41600500D01*
X153874785Y-41561090D01*
X154114379Y-41483241D01*
X154338845Y-41368870D01*
X154542656Y-41220793D01*
X154720793Y-41042656D01*
X154868870Y-40838845D01*
X154983241Y-40614379D01*
X155061090Y-40374785D01*
X155100500Y-40125962D01*
X155100500Y-39874038D01*
X155061090Y-39625215D01*
X154983241Y-39385621D01*
X154983239Y-39385618D01*
X154983239Y-39385616D01*
X154929794Y-39280726D01*
X154868870Y-39161155D01*
X154849952Y-39135117D01*
X154720798Y-38957350D01*
X154720794Y-38957345D01*
X154542654Y-38779205D01*
X154542649Y-38779201D01*
X154338848Y-38631132D01*
X154338847Y-38631131D01*
X154338845Y-38631130D01*
X154268747Y-38595413D01*
X154114383Y-38516760D01*
X153874785Y-38438910D01*
X153625962Y-38399500D01*
X153374038Y-38399500D01*
X153249626Y-38419205D01*
X153125214Y-38438910D01*
X152885616Y-38516760D01*
X152661151Y-38631132D01*
X152457350Y-38779201D01*
X152457345Y-38779205D01*
X152279205Y-38957345D01*
X152279201Y-38957350D01*
X152131132Y-39161151D01*
X152016760Y-39385616D01*
X151938910Y-39625214D01*
X151899500Y-39874038D01*
X125698726Y-39874038D01*
X125700548Y-39867238D01*
X125730500Y-39639734D01*
X125730500Y-39410266D01*
X125700548Y-39182762D01*
X125641158Y-38961113D01*
X125565809Y-38779205D01*
X125553349Y-38749123D01*
X125553346Y-38749117D01*
X125553344Y-38749112D01*
X125438611Y-38550388D01*
X125438608Y-38550385D01*
X125438607Y-38550382D01*
X125298918Y-38368338D01*
X125298911Y-38368330D01*
X125136670Y-38206089D01*
X125136661Y-38206081D01*
X124954617Y-38066392D01*
X124755890Y-37951657D01*
X124755876Y-37951650D01*
X124543887Y-37863842D01*
X124322238Y-37804452D01*
X124284215Y-37799446D01*
X124094741Y-37774500D01*
X124094734Y-37774500D01*
X123865266Y-37774500D01*
X123865258Y-37774500D01*
X123648715Y-37803009D01*
X123637762Y-37804452D01*
X123544076Y-37829554D01*
X123416112Y-37863842D01*
X123204123Y-37951650D01*
X123204109Y-37951657D01*
X123005382Y-38066392D01*
X122823338Y-38206081D01*
X122661081Y-38368338D01*
X122521392Y-38550382D01*
X122406657Y-38749109D01*
X122406650Y-38749123D01*
X122318842Y-38961112D01*
X122259453Y-39182759D01*
X122259451Y-39182770D01*
X122246939Y-39277806D01*
X122218672Y-39341702D01*
X122160348Y-39380173D01*
X122090483Y-39381004D01*
X122031260Y-39343932D01*
X122001481Y-39280726D01*
X122000000Y-39261620D01*
X122000000Y-37124500D01*
X122019685Y-37057461D01*
X122072489Y-37011706D01*
X122124000Y-37000500D01*
X156375500Y-37000500D01*
X156442539Y-37020185D01*
X156488294Y-37072989D01*
X156499500Y-37124500D01*
X156499500Y-165875500D01*
X156479815Y-165942539D01*
X156427011Y-165988294D01*
X156375500Y-165999500D01*
X57624500Y-165999500D01*
X57557461Y-165979815D01*
X57511706Y-165927011D01*
X57500500Y-165875500D01*
X57500500Y-162874038D01*
X58899500Y-162874038D01*
X58899500Y-163125961D01*
X58938910Y-163374785D01*
X59016760Y-163614383D01*
X59131132Y-163838848D01*
X59279201Y-164042649D01*
X59279205Y-164042654D01*
X59457345Y-164220794D01*
X59457350Y-164220798D01*
X59635117Y-164349952D01*
X59661155Y-164368870D01*
X59804184Y-164441747D01*
X59885616Y-164483239D01*
X59885618Y-164483239D01*
X59885621Y-164483241D01*
X60125215Y-164561090D01*
X60374038Y-164600500D01*
X60374039Y-164600500D01*
X60625961Y-164600500D01*
X60625962Y-164600500D01*
X60874785Y-164561090D01*
X61114379Y-164483241D01*
X61338845Y-164368870D01*
X61542656Y-164220793D01*
X61720793Y-164042656D01*
X61868870Y-163838845D01*
X61983241Y-163614379D01*
X62061090Y-163374785D01*
X62100500Y-163125962D01*
X62100500Y-162874038D01*
X151899500Y-162874038D01*
X151899500Y-163125961D01*
X151938910Y-163374785D01*
X152016760Y-163614383D01*
X152131132Y-163838848D01*
X152279201Y-164042649D01*
X152279205Y-164042654D01*
X152457345Y-164220794D01*
X152457350Y-164220798D01*
X152635117Y-164349952D01*
X152661155Y-164368870D01*
X152804184Y-164441747D01*
X152885616Y-164483239D01*
X152885618Y-164483239D01*
X152885621Y-164483241D01*
X153125215Y-164561090D01*
X153374038Y-164600500D01*
X153374039Y-164600500D01*
X153625961Y-164600500D01*
X153625962Y-164600500D01*
X153874785Y-164561090D01*
X154114379Y-164483241D01*
X154338845Y-164368870D01*
X154542656Y-164220793D01*
X154720793Y-164042656D01*
X154868870Y-163838845D01*
X154983241Y-163614379D01*
X155061090Y-163374785D01*
X155100500Y-163125962D01*
X155100500Y-162874038D01*
X155061090Y-162625215D01*
X154983241Y-162385621D01*
X154983239Y-162385618D01*
X154983239Y-162385616D01*
X154941747Y-162304184D01*
X154868870Y-162161155D01*
X154849952Y-162135117D01*
X154720798Y-161957350D01*
X154720794Y-161957345D01*
X154542654Y-161779205D01*
X154542649Y-161779201D01*
X154338848Y-161631132D01*
X154338847Y-161631131D01*
X154338845Y-161631130D01*
X154268747Y-161595413D01*
X154114383Y-161516760D01*
X153874785Y-161438910D01*
X153625962Y-161399500D01*
X153374038Y-161399500D01*
X153249626Y-161419205D01*
X153125214Y-161438910D01*
X152885616Y-161516760D01*
X152661151Y-161631132D01*
X152457350Y-161779201D01*
X152457345Y-161779205D01*
X152279205Y-161957345D01*
X152279201Y-161957350D01*
X152131132Y-162161151D01*
X152016760Y-162385616D01*
X151938910Y-162625214D01*
X151899500Y-162874038D01*
X62100500Y-162874038D01*
X62061090Y-162625215D01*
X61983241Y-162385621D01*
X61983239Y-162385618D01*
X61983239Y-162385616D01*
X61941747Y-162304184D01*
X61868870Y-162161155D01*
X61849952Y-162135117D01*
X61720798Y-161957350D01*
X61720794Y-161957345D01*
X61542654Y-161779205D01*
X61542649Y-161779201D01*
X61338848Y-161631132D01*
X61338847Y-161631131D01*
X61338845Y-161631130D01*
X61268747Y-161595413D01*
X61114383Y-161516760D01*
X60874785Y-161438910D01*
X60625962Y-161399500D01*
X60374038Y-161399500D01*
X60249626Y-161419205D01*
X60125214Y-161438910D01*
X59885616Y-161516760D01*
X59661151Y-161631132D01*
X59457350Y-161779201D01*
X59457345Y-161779205D01*
X59279205Y-161957345D01*
X59279201Y-161957350D01*
X59131132Y-162161151D01*
X59016760Y-162385616D01*
X58938910Y-162625214D01*
X58899500Y-162874038D01*
X57500500Y-162874038D01*
X57500500Y-113042794D01*
X57520185Y-112975755D01*
X57572989Y-112930000D01*
X57642147Y-112920056D01*
X57705703Y-112949081D01*
X57721442Y-112965476D01*
X57826243Y-113096892D01*
X57854376Y-113132170D01*
X58037176Y-113301782D01*
X58048018Y-113311842D01*
X58266279Y-113460650D01*
X58266284Y-113460652D01*
X58266285Y-113460653D01*
X58266286Y-113460654D01*
X58392688Y-113521525D01*
X58504277Y-113575263D01*
X58504278Y-113575263D01*
X58504281Y-113575265D01*
X58756707Y-113653129D01*
X58756708Y-113653129D01*
X58756711Y-113653130D01*
X59017911Y-113692499D01*
X59017916Y-113692499D01*
X59017919Y-113692500D01*
X59017920Y-113692500D01*
X59282080Y-113692500D01*
X59282081Y-113692500D01*
X59282088Y-113692499D01*
X59543288Y-113653130D01*
X59543289Y-113653129D01*
X59543293Y-113653129D01*
X59795719Y-113575265D01*
X60033721Y-113460650D01*
X60251982Y-113311842D01*
X60445627Y-113132166D01*
X60610329Y-112925636D01*
X60742410Y-112696864D01*
X60838920Y-112450963D01*
X60897701Y-112193424D01*
X60917442Y-111930000D01*
X60917442Y-111929995D01*
X65002558Y-111929995D01*
X65002558Y-111930004D01*
X65022298Y-112193422D01*
X65022298Y-112193424D01*
X65081077Y-112450953D01*
X65081080Y-112450963D01*
X65177589Y-112696862D01*
X65177590Y-112696866D01*
X65252887Y-112827282D01*
X65269500Y-112889282D01*
X65269500Y-117888097D01*
X65306446Y-118121368D01*
X65379433Y-118345996D01*
X65469361Y-118522488D01*
X65486657Y-118556434D01*
X65600820Y-118713565D01*
X65625484Y-118747511D01*
X66963181Y-120085208D01*
X66996666Y-120146531D01*
X66999500Y-120172889D01*
X66999500Y-151618097D01*
X67036446Y-151851368D01*
X67109433Y-152075996D01*
X67211981Y-152277256D01*
X67216657Y-152286434D01*
X67355483Y-152477510D01*
X69522490Y-154644517D01*
X69713566Y-154783343D01*
X69924008Y-154890568D01*
X70148631Y-154963553D01*
X70236109Y-154977408D01*
X70381903Y-155000500D01*
X70381908Y-155000500D01*
X70625501Y-155000500D01*
X70692540Y-155020185D01*
X70738295Y-155072989D01*
X70749501Y-155124500D01*
X70749501Y-155308034D01*
X70760113Y-155427415D01*
X70816089Y-155623045D01*
X70816090Y-155623048D01*
X70816091Y-155623049D01*
X70910302Y-155803407D01*
X70910304Y-155803409D01*
X71038890Y-155961109D01*
X71132803Y-156037684D01*
X71196593Y-156089698D01*
X71376951Y-156183909D01*
X71572582Y-156239886D01*
X71691963Y-156250500D01*
X75308036Y-156250499D01*
X75427418Y-156239886D01*
X75623049Y-156183909D01*
X75803407Y-156089698D01*
X75961109Y-155961109D01*
X76089698Y-155803407D01*
X76183909Y-155623049D01*
X76239886Y-155427418D01*
X76250500Y-155308037D01*
X76250499Y-153378711D01*
X80294500Y-153378711D01*
X80294500Y-153621288D01*
X80326161Y-153861785D01*
X80388947Y-154096104D01*
X80481773Y-154320205D01*
X80481776Y-154320212D01*
X80603064Y-154530289D01*
X80603066Y-154530292D01*
X80603067Y-154530293D01*
X80750733Y-154722736D01*
X80750739Y-154722743D01*
X80922256Y-154894260D01*
X80922262Y-154894265D01*
X81114711Y-155041936D01*
X81324788Y-155163224D01*
X81548900Y-155256054D01*
X81783211Y-155318838D01*
X81963586Y-155342584D01*
X82023711Y-155350500D01*
X82023712Y-155350500D01*
X82266289Y-155350500D01*
X82314388Y-155344167D01*
X82506789Y-155318838D01*
X82741100Y-155256054D01*
X82965212Y-155163224D01*
X83175289Y-155041936D01*
X83367738Y-154894265D01*
X83539265Y-154722738D01*
X83686936Y-154530289D01*
X83808224Y-154320212D01*
X83901054Y-154096100D01*
X83963838Y-153861789D01*
X83995500Y-153621288D01*
X83995500Y-153378712D01*
X83995500Y-153378711D01*
X135904500Y-153378711D01*
X135904500Y-153621288D01*
X135936161Y-153861785D01*
X135998947Y-154096104D01*
X136091773Y-154320205D01*
X136091776Y-154320212D01*
X136213064Y-154530289D01*
X136213066Y-154530292D01*
X136213067Y-154530293D01*
X136360733Y-154722736D01*
X136360739Y-154722743D01*
X136532256Y-154894260D01*
X136532262Y-154894265D01*
X136724711Y-155041936D01*
X136934788Y-155163224D01*
X137158900Y-155256054D01*
X137393211Y-155318838D01*
X137573586Y-155342584D01*
X137633711Y-155350500D01*
X137633712Y-155350500D01*
X137876289Y-155350500D01*
X137924388Y-155344167D01*
X138116789Y-155318838D01*
X138351100Y-155256054D01*
X138575212Y-155163224D01*
X138785289Y-155041936D01*
X138977738Y-154894265D01*
X139149265Y-154722738D01*
X139296936Y-154530289D01*
X139418224Y-154320212D01*
X139511054Y-154096100D01*
X139573838Y-153861789D01*
X139605500Y-153621288D01*
X139605500Y-153378712D01*
X139573838Y-153138211D01*
X139511054Y-152903900D01*
X139418224Y-152679788D01*
X139296936Y-152469711D01*
X139149265Y-152277262D01*
X139149260Y-152277256D01*
X138977743Y-152105739D01*
X138977736Y-152105733D01*
X138785293Y-151958067D01*
X138785292Y-151958066D01*
X138785289Y-151958064D01*
X138575212Y-151836776D01*
X138575205Y-151836773D01*
X138351104Y-151743947D01*
X138116785Y-151681161D01*
X137876289Y-151649500D01*
X137876288Y-151649500D01*
X137633712Y-151649500D01*
X137633711Y-151649500D01*
X137393214Y-151681161D01*
X137158895Y-151743947D01*
X136934794Y-151836773D01*
X136934785Y-151836777D01*
X136724706Y-151958067D01*
X136532263Y-152105733D01*
X136532256Y-152105739D01*
X136360739Y-152277256D01*
X136360733Y-152277263D01*
X136213067Y-152469706D01*
X136091777Y-152679785D01*
X136091773Y-152679794D01*
X135998947Y-152903895D01*
X135936161Y-153138214D01*
X135904500Y-153378711D01*
X83995500Y-153378711D01*
X83963838Y-153138211D01*
X83901054Y-152903900D01*
X83808224Y-152679788D01*
X83686936Y-152469711D01*
X83539265Y-152277262D01*
X83539260Y-152277256D01*
X83367743Y-152105739D01*
X83367736Y-152105733D01*
X83175293Y-151958067D01*
X83175292Y-151958066D01*
X83175289Y-151958064D01*
X82965212Y-151836776D01*
X82965205Y-151836773D01*
X82741104Y-151743947D01*
X82506785Y-151681161D01*
X82266289Y-151649500D01*
X82266288Y-151649500D01*
X82023712Y-151649500D01*
X82023711Y-151649500D01*
X81783214Y-151681161D01*
X81548895Y-151743947D01*
X81324794Y-151836773D01*
X81324785Y-151836777D01*
X81114706Y-151958067D01*
X80922263Y-152105733D01*
X80922256Y-152105739D01*
X80750739Y-152277256D01*
X80750733Y-152277263D01*
X80603067Y-152469706D01*
X80481777Y-152679785D01*
X80481773Y-152679794D01*
X80388947Y-152903895D01*
X80326161Y-153138214D01*
X80294500Y-153378711D01*
X76250499Y-153378711D01*
X76250499Y-151691964D01*
X76239886Y-151572582D01*
X76185327Y-151381908D01*
X76183910Y-151376954D01*
X76183909Y-151376953D01*
X76183909Y-151376951D01*
X76089698Y-151196593D01*
X76037684Y-151132803D01*
X75961109Y-151038890D01*
X75845933Y-150944977D01*
X75803407Y-150910302D01*
X75623049Y-150816091D01*
X75623048Y-150816090D01*
X75623045Y-150816089D01*
X75505829Y-150782550D01*
X75427418Y-150760114D01*
X75427415Y-150760113D01*
X75427413Y-150760113D01*
X75361102Y-150754217D01*
X75308037Y-150749500D01*
X75308032Y-150749500D01*
X71691971Y-150749500D01*
X71691965Y-150749500D01*
X71691964Y-150749501D01*
X71680316Y-150750536D01*
X71572584Y-150760113D01*
X71376954Y-150816089D01*
X71355854Y-150827111D01*
X71196593Y-150910302D01*
X71196591Y-150910303D01*
X71196590Y-150910304D01*
X71038890Y-151038890D01*
X70910304Y-151196590D01*
X70816088Y-151376956D01*
X70803487Y-151420996D01*
X70766120Y-151480033D01*
X70702766Y-151509496D01*
X70633540Y-151500030D01*
X70596591Y-151474564D01*
X70036819Y-150914792D01*
X70003334Y-150853469D01*
X70000500Y-150827111D01*
X70000500Y-133871904D01*
X70020185Y-133804865D01*
X70072989Y-133759110D01*
X70142147Y-133749166D01*
X70197387Y-133771587D01*
X70213567Y-133783343D01*
X70310915Y-133832944D01*
X70424003Y-133890566D01*
X70424005Y-133890566D01*
X70424008Y-133890568D01*
X70648632Y-133963553D01*
X70653361Y-133964688D01*
X70652865Y-133966752D01*
X70707984Y-133992847D01*
X70744946Y-134052139D01*
X70749500Y-134085433D01*
X70749500Y-134308028D01*
X70749501Y-134308034D01*
X70760113Y-134427415D01*
X70816089Y-134623045D01*
X70816090Y-134623048D01*
X70816091Y-134623049D01*
X70910302Y-134803407D01*
X70910304Y-134803409D01*
X71038890Y-134961109D01*
X71132803Y-135037684D01*
X71196593Y-135089698D01*
X71376951Y-135183909D01*
X71572582Y-135239886D01*
X71691963Y-135250500D01*
X75308036Y-135250499D01*
X75427418Y-135239886D01*
X75623049Y-135183909D01*
X75803407Y-135089698D01*
X75961109Y-134961109D01*
X76089698Y-134803407D01*
X76183909Y-134623049D01*
X76239886Y-134427418D01*
X76250500Y-134308037D01*
X76250499Y-132378711D01*
X80294500Y-132378711D01*
X80294500Y-132621288D01*
X80326161Y-132861785D01*
X80388947Y-133096104D01*
X80481773Y-133320205D01*
X80481776Y-133320212D01*
X80603064Y-133530289D01*
X80603066Y-133530292D01*
X80603067Y-133530293D01*
X80750733Y-133722736D01*
X80750739Y-133722743D01*
X80922256Y-133894260D01*
X80922262Y-133894265D01*
X81114711Y-134041936D01*
X81324788Y-134163224D01*
X81548900Y-134256054D01*
X81783211Y-134318838D01*
X81963586Y-134342584D01*
X82023711Y-134350500D01*
X82023712Y-134350500D01*
X82266289Y-134350500D01*
X82314388Y-134344167D01*
X82506789Y-134318838D01*
X82741100Y-134256054D01*
X82965212Y-134163224D01*
X83175289Y-134041936D01*
X83367738Y-133894265D01*
X83539265Y-133722738D01*
X83686936Y-133530289D01*
X83808224Y-133320212D01*
X83901054Y-133096100D01*
X83963838Y-132861789D01*
X83995500Y-132621288D01*
X83995500Y-132378712D01*
X83995500Y-132378711D01*
X135904500Y-132378711D01*
X135904500Y-132621288D01*
X135936161Y-132861785D01*
X135998947Y-133096104D01*
X136091773Y-133320205D01*
X136091776Y-133320212D01*
X136213064Y-133530289D01*
X136213066Y-133530292D01*
X136213067Y-133530293D01*
X136360733Y-133722736D01*
X136360739Y-133722743D01*
X136532256Y-133894260D01*
X136532262Y-133894265D01*
X136724711Y-134041936D01*
X136934788Y-134163224D01*
X137158900Y-134256054D01*
X137393211Y-134318838D01*
X137573586Y-134342584D01*
X137633711Y-134350500D01*
X137633712Y-134350500D01*
X137876289Y-134350500D01*
X137924388Y-134344167D01*
X138116789Y-134318838D01*
X138351100Y-134256054D01*
X138575212Y-134163224D01*
X138785289Y-134041936D01*
X138977738Y-133894265D01*
X139149265Y-133722738D01*
X139296936Y-133530289D01*
X139418224Y-133320212D01*
X139511054Y-133096100D01*
X139573838Y-132861789D01*
X139605500Y-132621288D01*
X139605500Y-132378712D01*
X139573838Y-132138211D01*
X139511054Y-131903900D01*
X139418224Y-131679788D01*
X139296936Y-131469711D01*
X139149265Y-131277262D01*
X139149260Y-131277256D01*
X138977743Y-131105739D01*
X138977736Y-131105733D01*
X138785293Y-130958067D01*
X138785292Y-130958066D01*
X138785289Y-130958064D01*
X138575212Y-130836776D01*
X138575205Y-130836773D01*
X138351104Y-130743947D01*
X138116785Y-130681161D01*
X137876289Y-130649500D01*
X137876288Y-130649500D01*
X137633712Y-130649500D01*
X137633711Y-130649500D01*
X137393214Y-130681161D01*
X137158895Y-130743947D01*
X136934794Y-130836773D01*
X136934785Y-130836777D01*
X136724706Y-130958067D01*
X136532263Y-131105733D01*
X136532256Y-131105739D01*
X136360739Y-131277256D01*
X136360733Y-131277263D01*
X136213067Y-131469706D01*
X136091777Y-131679785D01*
X136091773Y-131679794D01*
X135998947Y-131903895D01*
X135936161Y-132138214D01*
X135904500Y-132378711D01*
X83995500Y-132378711D01*
X83963838Y-132138211D01*
X83901054Y-131903900D01*
X83808224Y-131679788D01*
X83686936Y-131469711D01*
X83539265Y-131277262D01*
X83539260Y-131277256D01*
X83367743Y-131105739D01*
X83367736Y-131105733D01*
X83175293Y-130958067D01*
X83175292Y-130958066D01*
X83175289Y-130958064D01*
X82965212Y-130836776D01*
X82965205Y-130836773D01*
X82741104Y-130743947D01*
X82506785Y-130681161D01*
X82266289Y-130649500D01*
X82266288Y-130649500D01*
X82023712Y-130649500D01*
X82023711Y-130649500D01*
X81783214Y-130681161D01*
X81548895Y-130743947D01*
X81324794Y-130836773D01*
X81324785Y-130836777D01*
X81114706Y-130958067D01*
X80922263Y-131105733D01*
X80922256Y-131105739D01*
X80750739Y-131277256D01*
X80750733Y-131277263D01*
X80603067Y-131469706D01*
X80481777Y-131679785D01*
X80481773Y-131679794D01*
X80388947Y-131903895D01*
X80326161Y-132138214D01*
X80294500Y-132378711D01*
X76250499Y-132378711D01*
X76250499Y-130691964D01*
X76239886Y-130572582D01*
X76183909Y-130376951D01*
X76089698Y-130196593D01*
X75961111Y-130038893D01*
X75961109Y-130038890D01*
X75803409Y-129910304D01*
X75803410Y-129910304D01*
X75803407Y-129910302D01*
X75623049Y-129816091D01*
X75623048Y-129816090D01*
X75623045Y-129816089D01*
X75505829Y-129782550D01*
X75427418Y-129760114D01*
X75427415Y-129760113D01*
X75427413Y-129760113D01*
X75361102Y-129754217D01*
X75308037Y-129749500D01*
X75308032Y-129749500D01*
X71691971Y-129749500D01*
X71691965Y-129749500D01*
X71691964Y-129749501D01*
X71680316Y-129750536D01*
X71572584Y-129760113D01*
X71376954Y-129816089D01*
X71286772Y-129863196D01*
X71196593Y-129910302D01*
X71196591Y-129910303D01*
X71196590Y-129910304D01*
X71038887Y-130038893D01*
X70955854Y-130140725D01*
X70898233Y-130180242D01*
X70828395Y-130182333D01*
X70772072Y-130150045D01*
X70036819Y-129414792D01*
X70003334Y-129353469D01*
X70000500Y-129327111D01*
X70000500Y-119381902D01*
X69963553Y-119148631D01*
X69892075Y-118928647D01*
X69891012Y-118924880D01*
X69890568Y-118924008D01*
X69890568Y-118924007D01*
X69783343Y-118713566D01*
X69644517Y-118522490D01*
X68306819Y-117184792D01*
X68273334Y-117123469D01*
X68270500Y-117097111D01*
X68270500Y-112889282D01*
X68287113Y-112827282D01*
X68362409Y-112696866D01*
X68362409Y-112696865D01*
X68362410Y-112696864D01*
X68458920Y-112450963D01*
X68517701Y-112193424D01*
X68537442Y-111930000D01*
X68517701Y-111666576D01*
X68458920Y-111409037D01*
X68362410Y-111163136D01*
X68230329Y-110934364D01*
X68065627Y-110727834D01*
X68065626Y-110727833D01*
X68065623Y-110727829D01*
X67871982Y-110548158D01*
X67653721Y-110399350D01*
X67653717Y-110399348D01*
X67653714Y-110399346D01*
X67653713Y-110399345D01*
X67415721Y-110284736D01*
X67415723Y-110284736D01*
X67163294Y-110206871D01*
X67163288Y-110206869D01*
X66902088Y-110167500D01*
X66902081Y-110167500D01*
X66637919Y-110167500D01*
X66637911Y-110167500D01*
X66376711Y-110206869D01*
X66376705Y-110206871D01*
X66124277Y-110284736D01*
X65886286Y-110399345D01*
X65886285Y-110399346D01*
X65668017Y-110548158D01*
X65474376Y-110727829D01*
X65309671Y-110934364D01*
X65177591Y-111163133D01*
X65177589Y-111163137D01*
X65081080Y-111409036D01*
X65081077Y-111409046D01*
X65022298Y-111666575D01*
X65022298Y-111666577D01*
X65002558Y-111929995D01*
X60917442Y-111929995D01*
X60897701Y-111666576D01*
X60838920Y-111409037D01*
X60742410Y-111163136D01*
X60667113Y-111032716D01*
X60650500Y-110970716D01*
X60650500Y-103022889D01*
X60670185Y-102955850D01*
X60686819Y-102935208D01*
X69356819Y-94265208D01*
X78144517Y-85477510D01*
X78283343Y-85286434D01*
X78390568Y-85075992D01*
X78463553Y-84851368D01*
X78500500Y-84618097D01*
X78500500Y-79881902D01*
X78463553Y-79648631D01*
X78390566Y-79424003D01*
X78351922Y-79348161D01*
X78351921Y-79348160D01*
X78283344Y-79213567D01*
X78216472Y-79121527D01*
X78144517Y-79022490D01*
X76020010Y-76897983D01*
X75828934Y-76759157D01*
X75618496Y-76651933D01*
X75393868Y-76578946D01*
X75160597Y-76542000D01*
X75160592Y-76542000D01*
X73874499Y-76542000D01*
X73807460Y-76522315D01*
X73761705Y-76469511D01*
X73750499Y-76418000D01*
X73750499Y-76234471D01*
X73750499Y-76234464D01*
X73739886Y-76115082D01*
X73683909Y-75919451D01*
X73589698Y-75739093D01*
X73537684Y-75675303D01*
X73461109Y-75581390D01*
X73303409Y-75452804D01*
X73303410Y-75452804D01*
X73303407Y-75452802D01*
X73123049Y-75358591D01*
X73123048Y-75358590D01*
X73123045Y-75358589D01*
X73005829Y-75325050D01*
X72927418Y-75302614D01*
X72927415Y-75302613D01*
X72927413Y-75302613D01*
X72861102Y-75296717D01*
X72808037Y-75292000D01*
X72808032Y-75292000D01*
X69191971Y-75292000D01*
X69191965Y-75292000D01*
X69191964Y-75292001D01*
X69180316Y-75293036D01*
X69072584Y-75302613D01*
X68876954Y-75358589D01*
X68786772Y-75405696D01*
X68696593Y-75452802D01*
X68696591Y-75452803D01*
X68696590Y-75452804D01*
X68538890Y-75581390D01*
X68410304Y-75739090D01*
X68316089Y-75919454D01*
X68260114Y-76115083D01*
X68260113Y-76115086D01*
X68249500Y-76234466D01*
X68249500Y-79850528D01*
X68249501Y-79850534D01*
X68260113Y-79969915D01*
X68316089Y-80165545D01*
X68316090Y-80165548D01*
X68316091Y-80165549D01*
X68410302Y-80345907D01*
X68410304Y-80345909D01*
X68538890Y-80503609D01*
X68600091Y-80553511D01*
X68696593Y-80632198D01*
X68876951Y-80726409D01*
X69072582Y-80782386D01*
X69191963Y-80793000D01*
X72808036Y-80792999D01*
X72927418Y-80782386D01*
X73123049Y-80726409D01*
X73303407Y-80632198D01*
X73461109Y-80503609D01*
X73589698Y-80345907D01*
X73683909Y-80165549D01*
X73739886Y-79969918D01*
X73750500Y-79850537D01*
X73750500Y-79667000D01*
X73770185Y-79599961D01*
X73822989Y-79554206D01*
X73874500Y-79543000D01*
X74369611Y-79543000D01*
X74436650Y-79562685D01*
X74457292Y-79579319D01*
X75463181Y-80585208D01*
X75496666Y-80646531D01*
X75499500Y-80672889D01*
X75499500Y-83827111D01*
X75479815Y-83894150D01*
X75463181Y-83914792D01*
X58005485Y-101372487D01*
X58005484Y-101372488D01*
X57866657Y-101563565D01*
X57759433Y-101774003D01*
X57742431Y-101826332D01*
X57702993Y-101884007D01*
X57638634Y-101911205D01*
X57569788Y-101899290D01*
X57518312Y-101852045D01*
X57500500Y-101788013D01*
X57500500Y-47766966D01*
X79824500Y-47766966D01*
X79824500Y-49233028D01*
X79824501Y-49233034D01*
X79835113Y-49352415D01*
X79891090Y-49548047D01*
X79985409Y-49728612D01*
X79999500Y-49786023D01*
X79999500Y-51284896D01*
X79990061Y-51332348D01*
X79925425Y-51488392D01*
X79864778Y-51741009D01*
X79844396Y-52000000D01*
X79864778Y-52258990D01*
X79925427Y-52511610D01*
X80024843Y-52751623D01*
X80024845Y-52751627D01*
X80024846Y-52751628D01*
X80160588Y-52973140D01*
X80329311Y-53170689D01*
X80526860Y-53339412D01*
X80748372Y-53475154D01*
X80748374Y-53475154D01*
X80748376Y-53475156D01*
X80809693Y-53500554D01*
X80988390Y-53574573D01*
X81241006Y-53635221D01*
X81500000Y-53655604D01*
X81758994Y-53635221D01*
X82011610Y-53574573D01*
X82028049Y-53567763D01*
X82097516Y-53560295D01*
X82159995Y-53591569D01*
X82195648Y-53651658D01*
X82199500Y-53682325D01*
X82199500Y-54102351D01*
X82231522Y-54304531D01*
X82261778Y-54397649D01*
X82294780Y-54499221D01*
X82296629Y-54502848D01*
X82296633Y-54502855D01*
X82387713Y-54681611D01*
X82508034Y-54847219D01*
X82508035Y-54847220D01*
X82508036Y-54847221D01*
X91779908Y-64119092D01*
X91779922Y-64119107D01*
X91783033Y-64122218D01*
X91783034Y-64122219D01*
X91927781Y-64266966D01*
X91927784Y-64266968D01*
X91927787Y-64266971D01*
X91999871Y-64319342D01*
X92030635Y-64341693D01*
X92093390Y-64387287D01*
X92182847Y-64432867D01*
X92275781Y-64480221D01*
X92275787Y-64480223D01*
X92407763Y-64523104D01*
X92407764Y-64523104D01*
X92439115Y-64533290D01*
X92470465Y-64543477D01*
X92571557Y-64559488D01*
X92672648Y-64575500D01*
X92672649Y-64575500D01*
X92877352Y-64575500D01*
X97188520Y-64575500D01*
X97255559Y-64595185D01*
X97301314Y-64647989D01*
X97311258Y-64717147D01*
X97297352Y-64758927D01*
X97175635Y-64981833D01*
X97075628Y-65249962D01*
X97014804Y-65529566D01*
X96994390Y-65814998D01*
X96994390Y-65815001D01*
X97014804Y-66100433D01*
X97075628Y-66380037D01*
X97175635Y-66648166D01*
X97312770Y-66899309D01*
X97396148Y-67010690D01*
X97420564Y-67076155D01*
X97405712Y-67144428D01*
X97396148Y-67159310D01*
X97312770Y-67270690D01*
X97175635Y-67521833D01*
X97075628Y-67789962D01*
X97014804Y-68069566D01*
X96994390Y-68354998D01*
X96994390Y-68355001D01*
X97014804Y-68640433D01*
X97075628Y-68920037D01*
X97175635Y-69188166D01*
X97312770Y-69439309D01*
X97396148Y-69550690D01*
X97420564Y-69616155D01*
X97405712Y-69684428D01*
X97396150Y-69699306D01*
X97348132Y-69763451D01*
X97312770Y-69810690D01*
X97175635Y-70061833D01*
X97075628Y-70329962D01*
X97014804Y-70609566D01*
X96994390Y-70894998D01*
X96994390Y-70895001D01*
X97014804Y-71180433D01*
X97075628Y-71460037D01*
X97175635Y-71728166D01*
X97312770Y-71979309D01*
X97312771Y-71979310D01*
X97312774Y-71979315D01*
X97322249Y-71991972D01*
X97396148Y-72090690D01*
X97420564Y-72156155D01*
X97405712Y-72224428D01*
X97396150Y-72239306D01*
X97374314Y-72268477D01*
X97312770Y-72350690D01*
X97175635Y-72601833D01*
X97075628Y-72869962D01*
X97014804Y-73149566D01*
X96994390Y-73434998D01*
X96994390Y-73435001D01*
X97014804Y-73720433D01*
X97075628Y-74000037D01*
X97175635Y-74268166D01*
X97312770Y-74519309D01*
X97312775Y-74519317D01*
X97484254Y-74748387D01*
X97484270Y-74748405D01*
X97686594Y-74950729D01*
X97686612Y-74950745D01*
X97915682Y-75122224D01*
X97915690Y-75122229D01*
X98166833Y-75259364D01*
X98166832Y-75259364D01*
X98166836Y-75259365D01*
X98166839Y-75259367D01*
X98434954Y-75359369D01*
X98434960Y-75359370D01*
X98434962Y-75359371D01*
X98714566Y-75420195D01*
X98714568Y-75420195D01*
X98714572Y-75420196D01*
X98968220Y-75438337D01*
X98999999Y-75440610D01*
X99000000Y-75440610D01*
X99000001Y-75440610D01*
X99028595Y-75438564D01*
X99285428Y-75420196D01*
X99565046Y-75359369D01*
X99833161Y-75259367D01*
X100084315Y-75122226D01*
X100313395Y-74950739D01*
X100515739Y-74748395D01*
X100687226Y-74519315D01*
X100824367Y-74268161D01*
X100924369Y-74000046D01*
X100985196Y-73720428D01*
X101005610Y-73435000D01*
X100985196Y-73149572D01*
X100954406Y-73008034D01*
X100924371Y-72869962D01*
X100924370Y-72869960D01*
X100924369Y-72869954D01*
X100824367Y-72601839D01*
X100687226Y-72350685D01*
X100603849Y-72239307D01*
X100579434Y-72173847D01*
X100594285Y-72105574D01*
X100603841Y-72090703D01*
X100687226Y-71979315D01*
X100824367Y-71728161D01*
X100924369Y-71460046D01*
X100985196Y-71180428D01*
X101005610Y-70895000D01*
X100985196Y-70609572D01*
X100924369Y-70329954D01*
X100824367Y-70061839D01*
X100824364Y-70061833D01*
X100687229Y-69810689D01*
X100686916Y-69810271D01*
X100603849Y-69699307D01*
X100579434Y-69633847D01*
X100594285Y-69565574D01*
X100603841Y-69550703D01*
X100687226Y-69439315D01*
X100824367Y-69188161D01*
X100924369Y-68920046D01*
X100985196Y-68640428D01*
X101005610Y-68355000D01*
X100985196Y-68069572D01*
X100924369Y-67789954D01*
X100824367Y-67521839D01*
X100687226Y-67270685D01*
X100603849Y-67159307D01*
X100579434Y-67093847D01*
X100594285Y-67025574D01*
X100603841Y-67010703D01*
X100687226Y-66899315D01*
X100824367Y-66648161D01*
X100924369Y-66380046D01*
X100985196Y-66100428D01*
X101005610Y-65815000D01*
X100985196Y-65529572D01*
X100924369Y-65249954D01*
X100824367Y-64981839D01*
X100741653Y-64830361D01*
X100687229Y-64730690D01*
X100687228Y-64730689D01*
X100687226Y-64730685D01*
X100603849Y-64619307D01*
X100579434Y-64553847D01*
X100594285Y-64485574D01*
X100603841Y-64470703D01*
X100687226Y-64359315D01*
X100824367Y-64108161D01*
X100924369Y-63840046D01*
X100924371Y-63840037D01*
X100985195Y-63560433D01*
X100985195Y-63560432D01*
X100985196Y-63560428D01*
X101005610Y-63275000D01*
X100985196Y-62989572D01*
X100924369Y-62709954D01*
X100824367Y-62441839D01*
X100719013Y-62248899D01*
X100687229Y-62190690D01*
X100687228Y-62190689D01*
X100687226Y-62190685D01*
X100603849Y-62079307D01*
X100579434Y-62013847D01*
X100594285Y-61945574D01*
X100603841Y-61930703D01*
X100687226Y-61819315D01*
X100824367Y-61568161D01*
X100924369Y-61300046D01*
X100937077Y-61241628D01*
X100985195Y-61020433D01*
X100985195Y-61020432D01*
X100985196Y-61020428D01*
X101005610Y-60735000D01*
X100985196Y-60449572D01*
X100939825Y-60241006D01*
X100924371Y-60169962D01*
X100924370Y-60169960D01*
X100924369Y-60169954D01*
X100824367Y-59901839D01*
X100746028Y-59758373D01*
X100687229Y-59650690D01*
X100687228Y-59650689D01*
X100687226Y-59650685D01*
X100603849Y-59539307D01*
X100579434Y-59473847D01*
X100594285Y-59405574D01*
X100603841Y-59390703D01*
X100687226Y-59279315D01*
X100824367Y-59028161D01*
X100924369Y-58760046D01*
X100985196Y-58480428D01*
X101005610Y-58195000D01*
X100985196Y-57909572D01*
X100924369Y-57629954D01*
X100824367Y-57361839D01*
X100756726Y-57237965D01*
X100687229Y-57110690D01*
X100687228Y-57110689D01*
X100687226Y-57110685D01*
X100603849Y-56999307D01*
X100579434Y-56933847D01*
X100594285Y-56865574D01*
X100603841Y-56850703D01*
X100687226Y-56739315D01*
X100824367Y-56488161D01*
X100924369Y-56220046D01*
X100985196Y-55940428D01*
X101005610Y-55655000D01*
X100985196Y-55369572D01*
X100983182Y-55360315D01*
X100924371Y-55089962D01*
X100924370Y-55089960D01*
X100924369Y-55089954D01*
X100824367Y-54821839D01*
X100747796Y-54681611D01*
X100687229Y-54570690D01*
X100687228Y-54570689D01*
X100687226Y-54570685D01*
X100603849Y-54459307D01*
X100579434Y-54393847D01*
X100594285Y-54325574D01*
X100603841Y-54310703D01*
X100687226Y-54199315D01*
X100824367Y-53948161D01*
X100924369Y-53680046D01*
X100929686Y-53655603D01*
X100985195Y-53400433D01*
X100985195Y-53400432D01*
X100985196Y-53400428D01*
X101005610Y-53115000D01*
X100985196Y-52829572D01*
X100968240Y-52751628D01*
X100924371Y-52549962D01*
X100924370Y-52549960D01*
X100924369Y-52549954D01*
X100824367Y-52281839D01*
X100811890Y-52258990D01*
X100687229Y-52030690D01*
X100687228Y-52030689D01*
X100687226Y-52030685D01*
X100603849Y-51919307D01*
X100579434Y-51853847D01*
X100594285Y-51785574D01*
X100603841Y-51770703D01*
X100687226Y-51659315D01*
X100824367Y-51408161D01*
X100924369Y-51140046D01*
X100985196Y-50860428D01*
X101005610Y-50575000D01*
X100985196Y-50289572D01*
X100924369Y-50009954D01*
X100824367Y-49741839D01*
X100817144Y-49728612D01*
X100687229Y-49490690D01*
X100687228Y-49490689D01*
X100687226Y-49490685D01*
X100603849Y-49379307D01*
X100579434Y-49313847D01*
X100594285Y-49245574D01*
X100603841Y-49230703D01*
X100687226Y-49119315D01*
X100824367Y-48868161D01*
X100924369Y-48600046D01*
X100985196Y-48320428D01*
X101005610Y-48035000D01*
X100985196Y-47749572D01*
X100963010Y-47647586D01*
X100924371Y-47469962D01*
X100924370Y-47469960D01*
X100924369Y-47469954D01*
X100824367Y-47201839D01*
X100798203Y-47153924D01*
X100687229Y-46950690D01*
X100687228Y-46950689D01*
X100687226Y-46950685D01*
X100603849Y-46839307D01*
X100579434Y-46773847D01*
X100594285Y-46705574D01*
X100603841Y-46690703D01*
X100687226Y-46579315D01*
X100824367Y-46328161D01*
X100924369Y-46060046D01*
X100985196Y-45780428D01*
X101005610Y-45495000D01*
X100985196Y-45209572D01*
X100924369Y-44929954D01*
X100824367Y-44661839D01*
X100687226Y-44410685D01*
X100603849Y-44299307D01*
X100579434Y-44233847D01*
X100594285Y-44165574D01*
X100603841Y-44150703D01*
X100687226Y-44039315D01*
X100824367Y-43788161D01*
X100924369Y-43520046D01*
X100985196Y-43240428D01*
X101005610Y-42955000D01*
X100985196Y-42669572D01*
X100924369Y-42389954D01*
X100824367Y-42121839D01*
X100687226Y-41870685D01*
X100687224Y-41870682D01*
X100515745Y-41641612D01*
X100515729Y-41641594D01*
X100313405Y-41439270D01*
X100313387Y-41439254D01*
X100170485Y-41332280D01*
X100128613Y-41276347D01*
X100123629Y-41206655D01*
X100157114Y-41145332D01*
X100197341Y-41118452D01*
X100245888Y-41098344D01*
X100444612Y-40983611D01*
X100626661Y-40843919D01*
X100626665Y-40843914D01*
X100626670Y-40843911D01*
X100788911Y-40681670D01*
X100788914Y-40681665D01*
X100788919Y-40681661D01*
X100928611Y-40499612D01*
X101043344Y-40300888D01*
X101131158Y-40088887D01*
X101190548Y-39867238D01*
X101220500Y-39639734D01*
X101220500Y-39410266D01*
X101190548Y-39182762D01*
X101131158Y-38961113D01*
X101055809Y-38779205D01*
X101043349Y-38749123D01*
X101043346Y-38749117D01*
X101043344Y-38749112D01*
X100928611Y-38550388D01*
X100928608Y-38550385D01*
X100928607Y-38550382D01*
X100788918Y-38368338D01*
X100788911Y-38368330D01*
X100626670Y-38206089D01*
X100626661Y-38206081D01*
X100444617Y-38066392D01*
X100245890Y-37951657D01*
X100245876Y-37951650D01*
X100033887Y-37863842D01*
X99812238Y-37804452D01*
X99774215Y-37799446D01*
X99584741Y-37774500D01*
X99584734Y-37774500D01*
X99355266Y-37774500D01*
X99355258Y-37774500D01*
X99138715Y-37803009D01*
X99127762Y-37804452D01*
X99034076Y-37829554D01*
X98906112Y-37863842D01*
X98694123Y-37951650D01*
X98694109Y-37951657D01*
X98495382Y-38066392D01*
X98313338Y-38206081D01*
X98151081Y-38368338D01*
X98011392Y-38550382D01*
X97896657Y-38749109D01*
X97896650Y-38749123D01*
X97808842Y-38961112D01*
X97749453Y-39182759D01*
X97749451Y-39182770D01*
X97719500Y-39410258D01*
X97719500Y-39639741D01*
X97734470Y-39753444D01*
X97749452Y-39867238D01*
X97749453Y-39867240D01*
X97808842Y-40088887D01*
X97896650Y-40300876D01*
X97896657Y-40300890D01*
X98011392Y-40499617D01*
X98151081Y-40681661D01*
X98151089Y-40681670D01*
X98313329Y-40843910D01*
X98313333Y-40843913D01*
X98313339Y-40843919D01*
X98339218Y-40863776D01*
X98380418Y-40920202D01*
X98384573Y-40989948D01*
X98350360Y-41050869D01*
X98307063Y-41078332D01*
X98166833Y-41130635D01*
X97915690Y-41267770D01*
X97915682Y-41267775D01*
X97686612Y-41439254D01*
X97686594Y-41439270D01*
X97484270Y-41641594D01*
X97484254Y-41641612D01*
X97312775Y-41870682D01*
X97312770Y-41870690D01*
X97175635Y-42121833D01*
X97075628Y-42389962D01*
X97014804Y-42669566D01*
X96994390Y-42954998D01*
X96994390Y-42955001D01*
X97014804Y-43240433D01*
X97075628Y-43520037D01*
X97175635Y-43788166D01*
X97312770Y-44039309D01*
X97396148Y-44150690D01*
X97420564Y-44216155D01*
X97405712Y-44284428D01*
X97396148Y-44299310D01*
X97312770Y-44410690D01*
X97175635Y-44661833D01*
X97075628Y-44929962D01*
X97014804Y-45209566D01*
X96994390Y-45494998D01*
X96994390Y-45495001D01*
X97014804Y-45780433D01*
X97075628Y-46060037D01*
X97175635Y-46328166D01*
X97312770Y-46579309D01*
X97312771Y-46579310D01*
X97312774Y-46579315D01*
X97374679Y-46662011D01*
X97396148Y-46690690D01*
X97420564Y-46756155D01*
X97405712Y-46824428D01*
X97396150Y-46839306D01*
X97379215Y-46861930D01*
X97312770Y-46950690D01*
X97175635Y-47201833D01*
X97075628Y-47469962D01*
X97014804Y-47749566D01*
X96994390Y-48034998D01*
X96994390Y-48035001D01*
X97014804Y-48320433D01*
X97075628Y-48600037D01*
X97075630Y-48600043D01*
X97075631Y-48600046D01*
X97131718Y-48750421D01*
X97175635Y-48868166D01*
X97312770Y-49119309D01*
X97396148Y-49230690D01*
X97420564Y-49296155D01*
X97405712Y-49364428D01*
X97396148Y-49379310D01*
X97312770Y-49490690D01*
X97175635Y-49741833D01*
X97075628Y-50009962D01*
X97014804Y-50289566D01*
X96994390Y-50574998D01*
X96994390Y-50575001D01*
X97014804Y-50860433D01*
X97075628Y-51140037D01*
X97075630Y-51140043D01*
X97075631Y-51140046D01*
X97147356Y-51332348D01*
X97175635Y-51408166D01*
X97312770Y-51659309D01*
X97396148Y-51770690D01*
X97420564Y-51836155D01*
X97405712Y-51904428D01*
X97396148Y-51919310D01*
X97312770Y-52030690D01*
X97175635Y-52281833D01*
X97075628Y-52549962D01*
X97014804Y-52829566D01*
X96994390Y-53114998D01*
X96994390Y-53115001D01*
X97014804Y-53400433D01*
X97075628Y-53680037D01*
X97175635Y-53948166D01*
X97312770Y-54199309D01*
X97396148Y-54310690D01*
X97420564Y-54376155D01*
X97405712Y-54444428D01*
X97396150Y-54459306D01*
X97366271Y-54499221D01*
X97312770Y-54570690D01*
X97175635Y-54821833D01*
X97075628Y-55089962D01*
X97014804Y-55369566D01*
X96994390Y-55654998D01*
X96994390Y-55655001D01*
X97014804Y-55940433D01*
X97075628Y-56220037D01*
X97075630Y-56220043D01*
X97075631Y-56220046D01*
X97128611Y-56362091D01*
X97175635Y-56488166D01*
X97312770Y-56739309D01*
X97396148Y-56850690D01*
X97420564Y-56916155D01*
X97405712Y-56984428D01*
X97396148Y-56999310D01*
X97312770Y-57110690D01*
X97175635Y-57361833D01*
X97075628Y-57629962D01*
X97014804Y-57909566D01*
X96994390Y-58194998D01*
X96994390Y-58195001D01*
X97014804Y-58480433D01*
X97075628Y-58760037D01*
X97075630Y-58760043D01*
X97075631Y-58760046D01*
X97174397Y-59024846D01*
X97175635Y-59028166D01*
X97297352Y-59251073D01*
X97312204Y-59319346D01*
X97287787Y-59384810D01*
X97231854Y-59426682D01*
X97188520Y-59434500D01*
X93325047Y-59434500D01*
X93258008Y-59414815D01*
X93237366Y-59398181D01*
X86836819Y-52997634D01*
X86803334Y-52936311D01*
X86800500Y-52909953D01*
X86800500Y-49599906D01*
X86820185Y-49532867D01*
X86827547Y-49522601D01*
X86888245Y-49446489D01*
X87013806Y-49229011D01*
X87105552Y-48995247D01*
X87161432Y-48750421D01*
X87172701Y-48600046D01*
X87180198Y-48500004D01*
X87180198Y-48499995D01*
X87161432Y-48249580D01*
X87161432Y-48249579D01*
X87105552Y-48004753D01*
X87013806Y-47770989D01*
X87013805Y-47770988D01*
X87013806Y-47770988D01*
X86942559Y-47647586D01*
X86888245Y-47553511D01*
X86731672Y-47357175D01*
X86731671Y-47357174D01*
X86731668Y-47357170D01*
X86547586Y-47186368D01*
X86461682Y-47127800D01*
X86340099Y-47044906D01*
X86340095Y-47044904D01*
X86340092Y-47044902D01*
X86340091Y-47044901D01*
X86113847Y-46935949D01*
X86113849Y-46935949D01*
X85873887Y-46861930D01*
X85873883Y-46861929D01*
X85873879Y-46861928D01*
X85754432Y-46843924D01*
X85625566Y-46824500D01*
X85625561Y-46824500D01*
X85374439Y-46824500D01*
X85374433Y-46824500D01*
X85219792Y-46847809D01*
X85126121Y-46861928D01*
X85126118Y-46861929D01*
X85126112Y-46861930D01*
X84886151Y-46935949D01*
X84659908Y-47044901D01*
X84659900Y-47044906D01*
X84569851Y-47106300D01*
X84503371Y-47127800D01*
X84435821Y-47109945D01*
X84430149Y-47106300D01*
X84340099Y-47044906D01*
X84340091Y-47044901D01*
X84113847Y-46935949D01*
X84113849Y-46935949D01*
X83873887Y-46861930D01*
X83873883Y-46861929D01*
X83873879Y-46861928D01*
X83754432Y-46843924D01*
X83625566Y-46824500D01*
X83625561Y-46824500D01*
X83374439Y-46824500D01*
X83374433Y-46824500D01*
X83219792Y-46847809D01*
X83126121Y-46861928D01*
X83126118Y-46861929D01*
X83126112Y-46861930D01*
X82886154Y-46935948D01*
X82810975Y-46972152D01*
X82742034Y-46983503D01*
X82699764Y-46970340D01*
X82548047Y-46891090D01*
X82464370Y-46867147D01*
X82352418Y-46835114D01*
X82352415Y-46835113D01*
X82352413Y-46835113D01*
X82286102Y-46829217D01*
X82233037Y-46824500D01*
X82233032Y-46824500D01*
X80766971Y-46824500D01*
X80766965Y-46824500D01*
X80766964Y-46824501D01*
X80755316Y-46825536D01*
X80647584Y-46835113D01*
X80451954Y-46891089D01*
X80366075Y-46935949D01*
X80271593Y-46985302D01*
X80271591Y-46985303D01*
X80271590Y-46985304D01*
X80113890Y-47113890D01*
X79985304Y-47271590D01*
X79891089Y-47451954D01*
X79835114Y-47647583D01*
X79835113Y-47647586D01*
X79824500Y-47766966D01*
X57500500Y-47766966D01*
X57500500Y-39874038D01*
X58899500Y-39874038D01*
X58899500Y-40125961D01*
X58938910Y-40374785D01*
X59016760Y-40614383D01*
X59131132Y-40838848D01*
X59279201Y-41042649D01*
X59279205Y-41042654D01*
X59457345Y-41220794D01*
X59457350Y-41220798D01*
X59542900Y-41282953D01*
X59661155Y-41368870D01*
X59799292Y-41439254D01*
X59885616Y-41483239D01*
X59885618Y-41483239D01*
X59885621Y-41483241D01*
X60125215Y-41561090D01*
X60374038Y-41600500D01*
X60374039Y-41600500D01*
X60625961Y-41600500D01*
X60625962Y-41600500D01*
X60874785Y-41561090D01*
X61114379Y-41483241D01*
X61338845Y-41368870D01*
X61542656Y-41220793D01*
X61720793Y-41042656D01*
X61868870Y-40838845D01*
X61983241Y-40614379D01*
X62061090Y-40374785D01*
X62100500Y-40125962D01*
X62100500Y-39874038D01*
X62061090Y-39625215D01*
X61983241Y-39385621D01*
X61983239Y-39385618D01*
X61983239Y-39385616D01*
X61929794Y-39280726D01*
X61868870Y-39161155D01*
X61849952Y-39135117D01*
X61720798Y-38957350D01*
X61720794Y-38957345D01*
X61542654Y-38779205D01*
X61542649Y-38779201D01*
X61338848Y-38631132D01*
X61338847Y-38631131D01*
X61338845Y-38631130D01*
X61268747Y-38595413D01*
X61114383Y-38516760D01*
X60874785Y-38438910D01*
X60625962Y-38399500D01*
X60374038Y-38399500D01*
X60249626Y-38419205D01*
X60125214Y-38438910D01*
X59885616Y-38516760D01*
X59661151Y-38631132D01*
X59457350Y-38779201D01*
X59457345Y-38779205D01*
X59279205Y-38957345D01*
X59279201Y-38957350D01*
X59131132Y-39161151D01*
X59016760Y-39385616D01*
X58938910Y-39625214D01*
X58899500Y-39874038D01*
X57500500Y-39874038D01*
X57500500Y-37124500D01*
X57520185Y-37057461D01*
X57572989Y-37011706D01*
X57624500Y-37000500D01*
X101376000Y-37000500D01*
X101443039Y-37020185D01*
G37*
%TD.AperFunction*%
%TD*%
M02*
