%TF.GenerationSoftware,KiCad,Pcbnew,8.0.8*%
%TF.CreationDate,2025-03-04T12:02:19-05:00*%
%TF.ProjectId,Proyecto PCB,50726f79-6563-4746-9f20-5043422e6b69,rev?*%
%TF.SameCoordinates,Original*%
%TF.FileFunction,Legend,Top*%
%TF.FilePolarity,Positive*%
%FSLAX46Y46*%
G04 Gerber Fmt 4.6, Leading zero omitted, Abs format (unit mm)*
G04 Created by KiCad (PCBNEW 8.0.8) date 2025-03-04 12:02:19*
%MOMM*%
%LPD*%
G01*
G04 APERTURE LIST*
%ADD10C,0.150000*%
%ADD11C,0.120000*%
%ADD12C,0.127000*%
%ADD13C,0.200000*%
G04 APERTURE END LIST*
D10*
X62216666Y-83247319D02*
X62216666Y-83961604D01*
X62216666Y-83961604D02*
X62169047Y-84104461D01*
X62169047Y-84104461D02*
X62073809Y-84199700D01*
X62073809Y-84199700D02*
X61930952Y-84247319D01*
X61930952Y-84247319D02*
X61835714Y-84247319D01*
X62597619Y-83247319D02*
X63216666Y-83247319D01*
X63216666Y-83247319D02*
X62883333Y-83628271D01*
X62883333Y-83628271D02*
X63026190Y-83628271D01*
X63026190Y-83628271D02*
X63121428Y-83675890D01*
X63121428Y-83675890D02*
X63169047Y-83723509D01*
X63169047Y-83723509D02*
X63216666Y-83818747D01*
X63216666Y-83818747D02*
X63216666Y-84056842D01*
X63216666Y-84056842D02*
X63169047Y-84152080D01*
X63169047Y-84152080D02*
X63121428Y-84199700D01*
X63121428Y-84199700D02*
X63026190Y-84247319D01*
X63026190Y-84247319D02*
X62740476Y-84247319D01*
X62740476Y-84247319D02*
X62645238Y-84199700D01*
X62645238Y-84199700D02*
X62597619Y-84152080D01*
X132894819Y-81833333D02*
X133609104Y-81833333D01*
X133609104Y-81833333D02*
X133751961Y-81880952D01*
X133751961Y-81880952D02*
X133847200Y-81976190D01*
X133847200Y-81976190D02*
X133894819Y-82119047D01*
X133894819Y-82119047D02*
X133894819Y-82214285D01*
X133894819Y-80833333D02*
X133894819Y-81404761D01*
X133894819Y-81119047D02*
X132894819Y-81119047D01*
X132894819Y-81119047D02*
X133037676Y-81214285D01*
X133037676Y-81214285D02*
X133132914Y-81309523D01*
X133132914Y-81309523D02*
X133180533Y-81404761D01*
X98881905Y-101424819D02*
X98881905Y-100424819D01*
X98881905Y-100424819D02*
X99120000Y-100424819D01*
X99120000Y-100424819D02*
X99262857Y-100472438D01*
X99262857Y-100472438D02*
X99358095Y-100567676D01*
X99358095Y-100567676D02*
X99405714Y-100662914D01*
X99405714Y-100662914D02*
X99453333Y-100853390D01*
X99453333Y-100853390D02*
X99453333Y-100996247D01*
X99453333Y-100996247D02*
X99405714Y-101186723D01*
X99405714Y-101186723D02*
X99358095Y-101281961D01*
X99358095Y-101281961D02*
X99262857Y-101377200D01*
X99262857Y-101377200D02*
X99120000Y-101424819D01*
X99120000Y-101424819D02*
X98881905Y-101424819D01*
X100405714Y-101424819D02*
X99834286Y-101424819D01*
X100120000Y-101424819D02*
X100120000Y-100424819D01*
X100120000Y-100424819D02*
X100024762Y-100567676D01*
X100024762Y-100567676D02*
X99929524Y-100662914D01*
X99929524Y-100662914D02*
X99834286Y-100710533D01*
X104438095Y-100854819D02*
X104438095Y-99854819D01*
X105009523Y-100854819D02*
X104580952Y-100283390D01*
X105009523Y-99854819D02*
X104438095Y-100426247D01*
X64738095Y-100724819D02*
X64738095Y-101534342D01*
X64738095Y-101534342D02*
X64785714Y-101629580D01*
X64785714Y-101629580D02*
X64833333Y-101677200D01*
X64833333Y-101677200D02*
X64928571Y-101724819D01*
X64928571Y-101724819D02*
X65119047Y-101724819D01*
X65119047Y-101724819D02*
X65214285Y-101677200D01*
X65214285Y-101677200D02*
X65261904Y-101629580D01*
X65261904Y-101629580D02*
X65309523Y-101534342D01*
X65309523Y-101534342D02*
X65309523Y-100724819D01*
X65738095Y-100820057D02*
X65785714Y-100772438D01*
X65785714Y-100772438D02*
X65880952Y-100724819D01*
X65880952Y-100724819D02*
X66119047Y-100724819D01*
X66119047Y-100724819D02*
X66214285Y-100772438D01*
X66214285Y-100772438D02*
X66261904Y-100820057D01*
X66261904Y-100820057D02*
X66309523Y-100915295D01*
X66309523Y-100915295D02*
X66309523Y-101010533D01*
X66309523Y-101010533D02*
X66261904Y-101153390D01*
X66261904Y-101153390D02*
X65690476Y-101724819D01*
X65690476Y-101724819D02*
X66309523Y-101724819D01*
X152166666Y-36754819D02*
X151833333Y-36278628D01*
X151595238Y-36754819D02*
X151595238Y-35754819D01*
X151595238Y-35754819D02*
X151976190Y-35754819D01*
X151976190Y-35754819D02*
X152071428Y-35802438D01*
X152071428Y-35802438D02*
X152119047Y-35850057D01*
X152119047Y-35850057D02*
X152166666Y-35945295D01*
X152166666Y-35945295D02*
X152166666Y-36088152D01*
X152166666Y-36088152D02*
X152119047Y-36183390D01*
X152119047Y-36183390D02*
X152071428Y-36231009D01*
X152071428Y-36231009D02*
X151976190Y-36278628D01*
X151976190Y-36278628D02*
X151595238Y-36278628D01*
X152595238Y-36231009D02*
X152928571Y-36231009D01*
X153071428Y-36754819D02*
X152595238Y-36754819D01*
X152595238Y-36754819D02*
X152595238Y-35754819D01*
X152595238Y-35754819D02*
X153071428Y-35754819D01*
X153833333Y-36231009D02*
X153500000Y-36231009D01*
X153500000Y-36754819D02*
X153500000Y-35754819D01*
X153500000Y-35754819D02*
X153976190Y-35754819D01*
X154500000Y-35754819D02*
X154500000Y-35992914D01*
X154261905Y-35897676D02*
X154500000Y-35992914D01*
X154500000Y-35992914D02*
X154738095Y-35897676D01*
X154357143Y-36183390D02*
X154500000Y-35992914D01*
X154500000Y-35992914D02*
X154642857Y-36183390D01*
X155261905Y-35754819D02*
X155261905Y-35992914D01*
X155023810Y-35897676D02*
X155261905Y-35992914D01*
X155261905Y-35992914D02*
X155500000Y-35897676D01*
X155119048Y-36183390D02*
X155261905Y-35992914D01*
X155261905Y-35992914D02*
X155404762Y-36183390D01*
X146374819Y-84333333D02*
X147089104Y-84333333D01*
X147089104Y-84333333D02*
X147231961Y-84380952D01*
X147231961Y-84380952D02*
X147327200Y-84476190D01*
X147327200Y-84476190D02*
X147374819Y-84619047D01*
X147374819Y-84619047D02*
X147374819Y-84714285D01*
X146470057Y-83904761D02*
X146422438Y-83857142D01*
X146422438Y-83857142D02*
X146374819Y-83761904D01*
X146374819Y-83761904D02*
X146374819Y-83523809D01*
X146374819Y-83523809D02*
X146422438Y-83428571D01*
X146422438Y-83428571D02*
X146470057Y-83380952D01*
X146470057Y-83380952D02*
X146565295Y-83333333D01*
X146565295Y-83333333D02*
X146660533Y-83333333D01*
X146660533Y-83333333D02*
X146803390Y-83380952D01*
X146803390Y-83380952D02*
X147374819Y-83952380D01*
X147374819Y-83952380D02*
X147374819Y-83333333D01*
X59166666Y-36754819D02*
X58833333Y-36278628D01*
X58595238Y-36754819D02*
X58595238Y-35754819D01*
X58595238Y-35754819D02*
X58976190Y-35754819D01*
X58976190Y-35754819D02*
X59071428Y-35802438D01*
X59071428Y-35802438D02*
X59119047Y-35850057D01*
X59119047Y-35850057D02*
X59166666Y-35945295D01*
X59166666Y-35945295D02*
X59166666Y-36088152D01*
X59166666Y-36088152D02*
X59119047Y-36183390D01*
X59119047Y-36183390D02*
X59071428Y-36231009D01*
X59071428Y-36231009D02*
X58976190Y-36278628D01*
X58976190Y-36278628D02*
X58595238Y-36278628D01*
X59595238Y-36231009D02*
X59928571Y-36231009D01*
X60071428Y-36754819D02*
X59595238Y-36754819D01*
X59595238Y-36754819D02*
X59595238Y-35754819D01*
X59595238Y-35754819D02*
X60071428Y-35754819D01*
X60833333Y-36231009D02*
X60500000Y-36231009D01*
X60500000Y-36754819D02*
X60500000Y-35754819D01*
X60500000Y-35754819D02*
X60976190Y-35754819D01*
X61500000Y-35754819D02*
X61500000Y-35992914D01*
X61261905Y-35897676D02*
X61500000Y-35992914D01*
X61500000Y-35992914D02*
X61738095Y-35897676D01*
X61357143Y-36183390D02*
X61500000Y-35992914D01*
X61500000Y-35992914D02*
X61642857Y-36183390D01*
X62261905Y-35754819D02*
X62261905Y-35992914D01*
X62023810Y-35897676D02*
X62261905Y-35992914D01*
X62261905Y-35992914D02*
X62500000Y-35897676D01*
X62119048Y-36183390D02*
X62261905Y-35992914D01*
X62261905Y-35992914D02*
X62404762Y-36183390D01*
X108714285Y-154431009D02*
X108857142Y-154478628D01*
X108857142Y-154478628D02*
X108904761Y-154526247D01*
X108904761Y-154526247D02*
X108952380Y-154621485D01*
X108952380Y-154621485D02*
X108952380Y-154764342D01*
X108952380Y-154764342D02*
X108904761Y-154859580D01*
X108904761Y-154859580D02*
X108857142Y-154907200D01*
X108857142Y-154907200D02*
X108761904Y-154954819D01*
X108761904Y-154954819D02*
X108380952Y-154954819D01*
X108380952Y-154954819D02*
X108380952Y-153954819D01*
X108380952Y-153954819D02*
X108714285Y-153954819D01*
X108714285Y-153954819D02*
X108809523Y-154002438D01*
X108809523Y-154002438D02*
X108857142Y-154050057D01*
X108857142Y-154050057D02*
X108904761Y-154145295D01*
X108904761Y-154145295D02*
X108904761Y-154240533D01*
X108904761Y-154240533D02*
X108857142Y-154335771D01*
X108857142Y-154335771D02*
X108809523Y-154383390D01*
X108809523Y-154383390D02*
X108714285Y-154431009D01*
X108714285Y-154431009D02*
X108380952Y-154431009D01*
X109238095Y-153954819D02*
X109809523Y-153954819D01*
X109523809Y-154954819D02*
X109523809Y-153954819D01*
X110095238Y-154050057D02*
X110142857Y-154002438D01*
X110142857Y-154002438D02*
X110238095Y-153954819D01*
X110238095Y-153954819D02*
X110476190Y-153954819D01*
X110476190Y-153954819D02*
X110571428Y-154002438D01*
X110571428Y-154002438D02*
X110619047Y-154050057D01*
X110619047Y-154050057D02*
X110666666Y-154145295D01*
X110666666Y-154145295D02*
X110666666Y-154240533D01*
X110666666Y-154240533D02*
X110619047Y-154383390D01*
X110619047Y-154383390D02*
X110047619Y-154954819D01*
X110047619Y-154954819D02*
X110666666Y-154954819D01*
X122293095Y-89814819D02*
X122293095Y-90624342D01*
X122293095Y-90624342D02*
X122340714Y-90719580D01*
X122340714Y-90719580D02*
X122388333Y-90767200D01*
X122388333Y-90767200D02*
X122483571Y-90814819D01*
X122483571Y-90814819D02*
X122674047Y-90814819D01*
X122674047Y-90814819D02*
X122769285Y-90767200D01*
X122769285Y-90767200D02*
X122816904Y-90719580D01*
X122816904Y-90719580D02*
X122864523Y-90624342D01*
X122864523Y-90624342D02*
X122864523Y-89814819D01*
X123864523Y-90814819D02*
X123293095Y-90814819D01*
X123578809Y-90814819D02*
X123578809Y-89814819D01*
X123578809Y-89814819D02*
X123483571Y-89957676D01*
X123483571Y-89957676D02*
X123388333Y-90052914D01*
X123388333Y-90052914D02*
X123293095Y-90100533D01*
X78894819Y-48833333D02*
X79609104Y-48833333D01*
X79609104Y-48833333D02*
X79751961Y-48880952D01*
X79751961Y-48880952D02*
X79847200Y-48976190D01*
X79847200Y-48976190D02*
X79894819Y-49119047D01*
X79894819Y-49119047D02*
X79894819Y-49214285D01*
X79228152Y-47928571D02*
X79894819Y-47928571D01*
X78847200Y-48166666D02*
X79561485Y-48404761D01*
X79561485Y-48404761D02*
X79561485Y-47785714D01*
X68090759Y-57690872D02*
X68138426Y-57547871D01*
X68138426Y-57547871D02*
X68138426Y-57309536D01*
X68138426Y-57309536D02*
X68090759Y-57214202D01*
X68090759Y-57214202D02*
X68043091Y-57166535D01*
X68043091Y-57166535D02*
X67947757Y-57118868D01*
X67947757Y-57118868D02*
X67852423Y-57118868D01*
X67852423Y-57118868D02*
X67757089Y-57166535D01*
X67757089Y-57166535D02*
X67709422Y-57214202D01*
X67709422Y-57214202D02*
X67661755Y-57309536D01*
X67661755Y-57309536D02*
X67614088Y-57500204D01*
X67614088Y-57500204D02*
X67566421Y-57595538D01*
X67566421Y-57595538D02*
X67518754Y-57643205D01*
X67518754Y-57643205D02*
X67423420Y-57690872D01*
X67423420Y-57690872D02*
X67328086Y-57690872D01*
X67328086Y-57690872D02*
X67232752Y-57643205D01*
X67232752Y-57643205D02*
X67185085Y-57595538D01*
X67185085Y-57595538D02*
X67137418Y-57500204D01*
X67137418Y-57500204D02*
X67137418Y-57261869D01*
X67137418Y-57261869D02*
X67185085Y-57118868D01*
X68138426Y-56165527D02*
X68138426Y-56737531D01*
X68138426Y-56451529D02*
X67137418Y-56451529D01*
X67137418Y-56451529D02*
X67280419Y-56546863D01*
X67280419Y-56546863D02*
X67375753Y-56642197D01*
X67375753Y-56642197D02*
X67423420Y-56737531D01*
X108714285Y-133431009D02*
X108857142Y-133478628D01*
X108857142Y-133478628D02*
X108904761Y-133526247D01*
X108904761Y-133526247D02*
X108952380Y-133621485D01*
X108952380Y-133621485D02*
X108952380Y-133764342D01*
X108952380Y-133764342D02*
X108904761Y-133859580D01*
X108904761Y-133859580D02*
X108857142Y-133907200D01*
X108857142Y-133907200D02*
X108761904Y-133954819D01*
X108761904Y-133954819D02*
X108380952Y-133954819D01*
X108380952Y-133954819D02*
X108380952Y-132954819D01*
X108380952Y-132954819D02*
X108714285Y-132954819D01*
X108714285Y-132954819D02*
X108809523Y-133002438D01*
X108809523Y-133002438D02*
X108857142Y-133050057D01*
X108857142Y-133050057D02*
X108904761Y-133145295D01*
X108904761Y-133145295D02*
X108904761Y-133240533D01*
X108904761Y-133240533D02*
X108857142Y-133335771D01*
X108857142Y-133335771D02*
X108809523Y-133383390D01*
X108809523Y-133383390D02*
X108714285Y-133431009D01*
X108714285Y-133431009D02*
X108380952Y-133431009D01*
X109238095Y-132954819D02*
X109809523Y-132954819D01*
X109523809Y-133954819D02*
X109523809Y-132954819D01*
X110666666Y-133954819D02*
X110095238Y-133954819D01*
X110380952Y-133954819D02*
X110380952Y-132954819D01*
X110380952Y-132954819D02*
X110285714Y-133097676D01*
X110285714Y-133097676D02*
X110190476Y-133192914D01*
X110190476Y-133192914D02*
X110095238Y-133240533D01*
X152166666Y-159754819D02*
X151833333Y-159278628D01*
X151595238Y-159754819D02*
X151595238Y-158754819D01*
X151595238Y-158754819D02*
X151976190Y-158754819D01*
X151976190Y-158754819D02*
X152071428Y-158802438D01*
X152071428Y-158802438D02*
X152119047Y-158850057D01*
X152119047Y-158850057D02*
X152166666Y-158945295D01*
X152166666Y-158945295D02*
X152166666Y-159088152D01*
X152166666Y-159088152D02*
X152119047Y-159183390D01*
X152119047Y-159183390D02*
X152071428Y-159231009D01*
X152071428Y-159231009D02*
X151976190Y-159278628D01*
X151976190Y-159278628D02*
X151595238Y-159278628D01*
X152595238Y-159231009D02*
X152928571Y-159231009D01*
X153071428Y-159754819D02*
X152595238Y-159754819D01*
X152595238Y-159754819D02*
X152595238Y-158754819D01*
X152595238Y-158754819D02*
X153071428Y-158754819D01*
X153833333Y-159231009D02*
X153500000Y-159231009D01*
X153500000Y-159754819D02*
X153500000Y-158754819D01*
X153500000Y-158754819D02*
X153976190Y-158754819D01*
X154500000Y-158754819D02*
X154500000Y-158992914D01*
X154261905Y-158897676D02*
X154500000Y-158992914D01*
X154500000Y-158992914D02*
X154738095Y-158897676D01*
X154357143Y-159183390D02*
X154500000Y-158992914D01*
X154500000Y-158992914D02*
X154642857Y-159183390D01*
X155261905Y-158754819D02*
X155261905Y-158992914D01*
X155023810Y-158897676D02*
X155261905Y-158992914D01*
X155261905Y-158992914D02*
X155500000Y-158897676D01*
X155119048Y-159183390D02*
X155261905Y-158992914D01*
X155261905Y-158992914D02*
X155404762Y-159183390D01*
X131436666Y-94254819D02*
X131436666Y-94969104D01*
X131436666Y-94969104D02*
X131389047Y-95111961D01*
X131389047Y-95111961D02*
X131293809Y-95207200D01*
X131293809Y-95207200D02*
X131150952Y-95254819D01*
X131150952Y-95254819D02*
X131055714Y-95254819D01*
X132341428Y-94254819D02*
X132150952Y-94254819D01*
X132150952Y-94254819D02*
X132055714Y-94302438D01*
X132055714Y-94302438D02*
X132008095Y-94350057D01*
X132008095Y-94350057D02*
X131912857Y-94492914D01*
X131912857Y-94492914D02*
X131865238Y-94683390D01*
X131865238Y-94683390D02*
X131865238Y-95064342D01*
X131865238Y-95064342D02*
X131912857Y-95159580D01*
X131912857Y-95159580D02*
X131960476Y-95207200D01*
X131960476Y-95207200D02*
X132055714Y-95254819D01*
X132055714Y-95254819D02*
X132246190Y-95254819D01*
X132246190Y-95254819D02*
X132341428Y-95207200D01*
X132341428Y-95207200D02*
X132389047Y-95159580D01*
X132389047Y-95159580D02*
X132436666Y-95064342D01*
X132436666Y-95064342D02*
X132436666Y-94826247D01*
X132436666Y-94826247D02*
X132389047Y-94731009D01*
X132389047Y-94731009D02*
X132341428Y-94683390D01*
X132341428Y-94683390D02*
X132246190Y-94635771D01*
X132246190Y-94635771D02*
X132055714Y-94635771D01*
X132055714Y-94635771D02*
X131960476Y-94683390D01*
X131960476Y-94683390D02*
X131912857Y-94731009D01*
X131912857Y-94731009D02*
X131865238Y-94826247D01*
X59166666Y-159754819D02*
X58833333Y-159278628D01*
X58595238Y-159754819D02*
X58595238Y-158754819D01*
X58595238Y-158754819D02*
X58976190Y-158754819D01*
X58976190Y-158754819D02*
X59071428Y-158802438D01*
X59071428Y-158802438D02*
X59119047Y-158850057D01*
X59119047Y-158850057D02*
X59166666Y-158945295D01*
X59166666Y-158945295D02*
X59166666Y-159088152D01*
X59166666Y-159088152D02*
X59119047Y-159183390D01*
X59119047Y-159183390D02*
X59071428Y-159231009D01*
X59071428Y-159231009D02*
X58976190Y-159278628D01*
X58976190Y-159278628D02*
X58595238Y-159278628D01*
X59595238Y-159231009D02*
X59928571Y-159231009D01*
X60071428Y-159754819D02*
X59595238Y-159754819D01*
X59595238Y-159754819D02*
X59595238Y-158754819D01*
X59595238Y-158754819D02*
X60071428Y-158754819D01*
X60833333Y-159231009D02*
X60500000Y-159231009D01*
X60500000Y-159754819D02*
X60500000Y-158754819D01*
X60500000Y-158754819D02*
X60976190Y-158754819D01*
X61500000Y-158754819D02*
X61500000Y-158992914D01*
X61261905Y-158897676D02*
X61500000Y-158992914D01*
X61500000Y-158992914D02*
X61738095Y-158897676D01*
X61357143Y-159183390D02*
X61500000Y-158992914D01*
X61500000Y-158992914D02*
X61642857Y-159183390D01*
X62261905Y-158754819D02*
X62261905Y-158992914D01*
X62023810Y-158897676D02*
X62261905Y-158992914D01*
X62261905Y-158992914D02*
X62500000Y-158897676D01*
X62119048Y-159183390D02*
X62261905Y-158992914D01*
X62261905Y-158992914D02*
X62404762Y-159183390D01*
D11*
%TO.C,J3*%
X57200000Y-73442500D02*
X71900000Y-73442500D01*
X57200000Y-82642500D02*
X57200000Y-73442500D01*
X66000000Y-82642500D02*
X57200000Y-82642500D01*
X71050000Y-73242500D02*
X72100000Y-73242500D01*
X71900000Y-73442500D02*
X71900000Y-76042500D01*
X71900000Y-79942500D02*
X71900000Y-82642500D01*
X71900000Y-82642500D02*
X70000000Y-82642500D01*
X72100000Y-74292500D02*
X72100000Y-73242500D01*
%TO.C,J1*%
X134440000Y-82560000D02*
X134440000Y-81500000D01*
X135500000Y-82560000D02*
X134440000Y-82560000D01*
X136500000Y-80440000D02*
X142560000Y-80440000D01*
X136500000Y-82560000D02*
X136500000Y-80440000D01*
X136500000Y-82560000D02*
X142560000Y-82560000D01*
X142560000Y-82560000D02*
X142560000Y-80440000D01*
%TO.C,D1*%
X95680000Y-98500000D02*
X96900000Y-98500000D01*
X96900000Y-97030000D02*
X96900000Y-99970000D01*
X96900000Y-99970000D02*
X102340000Y-99970000D01*
X101320000Y-99970000D02*
X101320000Y-97030000D01*
X101440000Y-99970000D02*
X101440000Y-97030000D01*
X101560000Y-99970000D02*
X101560000Y-97030000D01*
X102340000Y-97030000D02*
X96900000Y-97030000D01*
X102340000Y-99970000D02*
X102340000Y-97030000D01*
X103560000Y-98500000D02*
X102340000Y-98500000D01*
%TO.C,U2*%
X57880000Y-87800000D02*
X73120000Y-87800000D01*
X73120000Y-113200000D01*
X57880000Y-113200000D01*
X57880000Y-87800000D01*
%TO.C,J2*%
X148190000Y-78920000D02*
X148190000Y-89080000D01*
X148190000Y-89080000D02*
X155810000Y-89080000D01*
X154540000Y-78920000D02*
X154540000Y-89080000D01*
X155810000Y-78920000D02*
X148190000Y-78920000D01*
X155810000Y-89080000D02*
X155810000Y-78920000D01*
%TO.C,BT2*%
X70500000Y-143450000D02*
X148500000Y-143450000D01*
X70500000Y-163550000D02*
X70500000Y-143450000D01*
X148500000Y-143450000D02*
X148500000Y-163550000D01*
X148500000Y-163550000D02*
X70500000Y-163550000D01*
D12*
%TO.C,U1*%
X97470000Y-37525000D02*
X125980000Y-37525000D01*
X97470000Y-88475000D02*
X97470000Y-37525000D01*
X97470000Y-88475000D02*
X97470000Y-37525000D01*
X102920000Y-37525000D02*
X97470000Y-37525000D01*
X108200000Y-88475000D02*
X97470000Y-88475000D01*
X114911000Y-88475000D02*
X108200000Y-88475000D01*
X120610000Y-37525000D02*
X102920000Y-37525000D01*
X125980000Y-37525000D02*
X120610000Y-37525000D01*
X125980000Y-37525000D02*
X125980000Y-88475000D01*
X125980000Y-37525000D02*
X125980000Y-88475000D01*
X125980000Y-88475000D02*
X97470000Y-88475000D01*
X125980000Y-88475000D02*
X114911000Y-88475000D01*
D13*
X126650000Y-78515000D02*
G75*
G02*
X126450000Y-78515000I-100000J0D01*
G01*
X126450000Y-78515000D02*
G75*
G02*
X126650000Y-78515000I100000J0D01*
G01*
D11*
%TO.C,J4*%
X80440000Y-49560000D02*
X80440000Y-48500000D01*
X81500000Y-49560000D02*
X80440000Y-49560000D01*
X82500000Y-47440000D02*
X88560000Y-47440000D01*
X82500000Y-49560000D02*
X82500000Y-47440000D01*
X82500000Y-49560000D02*
X88560000Y-49560000D01*
X88560000Y-49560000D02*
X88560000Y-47440000D01*
D12*
%TO.C,S1*%
X57997500Y-54000000D02*
X57997500Y-67000000D01*
X57997500Y-67000000D02*
X63197500Y-67000000D01*
X63197500Y-54000000D02*
X57997500Y-54000000D01*
X63197500Y-67000000D02*
X63197500Y-54000000D01*
D13*
X65397500Y-56500000D02*
G75*
G02*
X65197500Y-56500000I-100000J0D01*
G01*
X65197500Y-56500000D02*
G75*
G02*
X65397500Y-56500000I100000J0D01*
G01*
D11*
%TO.C,BT1*%
X70500000Y-122450000D02*
X148500000Y-122450000D01*
X70500000Y-142550000D02*
X70500000Y-122450000D01*
X148500000Y-122450000D02*
X148500000Y-142550000D01*
X148500000Y-142550000D02*
X70500000Y-142550000D01*
%TO.C,J6*%
X108625000Y-96775000D02*
X108625000Y-118225000D01*
X108625000Y-118225000D02*
X152375000Y-118225000D01*
X108630000Y-97030000D02*
X109930000Y-97030000D01*
X108630000Y-100185000D02*
X111760000Y-100190000D01*
X108630000Y-114810000D02*
X111760000Y-114810000D01*
X108630000Y-117970000D02*
X111760000Y-117970000D01*
X111760000Y-99880000D02*
X111760000Y-100190000D01*
X111760000Y-114810000D02*
X111760000Y-117970000D01*
X118929233Y-99614149D02*
X118929233Y-99775687D01*
X118930233Y-98247610D02*
X120580233Y-97956671D01*
X118930233Y-107599106D02*
X118930233Y-98247610D01*
X118930233Y-107599106D02*
X119007797Y-107676670D01*
X119007797Y-107676670D02*
X129012670Y-107676670D01*
X119211636Y-115168217D02*
X119661636Y-115168217D01*
X119211636Y-116918217D02*
X119211636Y-115168217D01*
X119661636Y-116918217D02*
X119211636Y-116918217D01*
X119661636Y-117193217D02*
X119661636Y-114893217D01*
X119761636Y-114793217D02*
X123361636Y-114793217D01*
X120190233Y-112306670D02*
X120190233Y-107676670D01*
X120190233Y-112306670D02*
X121030233Y-112306670D01*
X120580233Y-97956671D02*
X127440233Y-97956671D01*
X121030233Y-112306670D02*
X121030233Y-107676670D01*
X121890233Y-112306670D02*
X121890233Y-107676670D01*
X121890233Y-112306670D02*
X122730233Y-112306670D01*
X122591358Y-114893217D02*
X122591358Y-117193217D01*
X122730233Y-112306670D02*
X122730233Y-107676670D01*
X123361636Y-117293217D02*
X119761636Y-117293217D01*
X123461636Y-114893217D02*
X123461636Y-117193217D01*
X123461636Y-115168217D02*
X123911636Y-115168217D01*
X123462636Y-115404696D02*
X123462636Y-115310144D01*
X123590233Y-112306670D02*
X123590233Y-107676670D01*
X123590233Y-112306670D02*
X124430233Y-112306670D01*
X123911636Y-115168217D02*
X123911636Y-116918217D01*
X123911636Y-116918217D02*
X123461636Y-116918217D01*
X124430233Y-112306670D02*
X124430233Y-107676670D01*
X125290233Y-112306670D02*
X125290233Y-107676670D01*
X125290233Y-112306670D02*
X126130233Y-112306670D01*
X126130233Y-112306670D02*
X126130233Y-107676670D01*
X126990233Y-112306670D02*
X126990233Y-107676670D01*
X126990233Y-112306670D02*
X127830233Y-112306670D01*
X127440233Y-97956671D02*
X129090233Y-98247610D01*
X127830233Y-112306670D02*
X127830233Y-107676670D01*
X129012670Y-107676670D02*
X129090233Y-107599106D01*
X129090233Y-99036670D02*
X118930233Y-99036670D01*
X129090233Y-107599106D02*
X129090233Y-98247610D01*
X130647397Y-106195796D02*
X130647397Y-115895796D01*
X132147397Y-117395796D02*
X141847397Y-117395796D01*
X133479783Y-102192294D02*
X133479783Y-97292295D01*
X133529783Y-97242295D02*
X143429783Y-97242295D01*
X134516385Y-98560900D02*
X134540553Y-98592295D01*
X134528594Y-98617294D02*
X134504147Y-98612062D01*
X134528594Y-98617294D02*
X134535764Y-98586075D01*
X134528594Y-98617294D02*
X134540553Y-98592295D01*
X134540553Y-99092294D02*
X136619014Y-99092294D01*
X136619014Y-98592295D02*
X134540553Y-98592295D01*
X141847397Y-104695796D02*
X132147397Y-104695796D01*
X142038978Y-97241295D02*
X141994106Y-97241295D01*
X142122312Y-97241295D02*
X142088357Y-97241295D01*
X143347397Y-115895796D02*
X143347397Y-106195796D01*
X143429783Y-102242294D02*
X133529783Y-102242294D01*
X143479783Y-97292295D02*
X143479783Y-102192294D01*
X146828681Y-98310296D02*
X147628681Y-98310296D01*
X146828681Y-99590295D02*
X146828681Y-97990296D01*
X147628681Y-97990296D02*
X146828681Y-97990296D01*
X147628681Y-97990296D02*
X147628681Y-99590295D01*
X147628681Y-99270295D02*
X146828681Y-99270295D01*
X147628681Y-99590295D02*
X146828681Y-99590295D01*
X149240000Y-97030000D02*
X152355000Y-97030000D01*
X149240000Y-100190000D02*
X149240000Y-97030000D01*
X149240000Y-100190000D02*
X152400000Y-100190000D01*
X149240000Y-114810000D02*
X152355000Y-114810000D01*
X149240000Y-117970000D02*
X149240000Y-114810000D01*
X149240000Y-117970000D02*
X152355000Y-117970000D01*
X152375000Y-96775000D02*
X108625000Y-96775000D01*
X152375000Y-118225000D02*
X152375000Y-96775000D01*
X119661636Y-114893217D02*
G75*
G02*
X119761636Y-114793236I99964J17D01*
G01*
X119761636Y-117293217D02*
G75*
G02*
X119661683Y-117193217I-36J99917D01*
G01*
X123361636Y-114793217D02*
G75*
G02*
X123461683Y-114893217I-36J-100083D01*
G01*
X123461636Y-117193217D02*
G75*
G02*
X123361636Y-117293236I-100036J17D01*
G01*
X130647397Y-106195796D02*
G75*
G02*
X132147397Y-104695797I1500003J-4D01*
G01*
X131961131Y-108076010D02*
G75*
G02*
X131995191Y-108210168I-52731J-84790D01*
G01*
X131961132Y-108076011D02*
G75*
G02*
X134027611Y-106009531I793628J1272851D01*
G01*
X131995217Y-113881409D02*
G75*
G02*
X131961118Y-114015560I-87017J-49291D01*
G01*
X131995218Y-113881410D02*
G75*
G02*
X131995221Y-108210185I5002182J2835610D01*
G01*
X132147397Y-117395796D02*
G75*
G02*
X130647404Y-115895796I3J1499996D01*
G01*
X133479783Y-97292295D02*
G75*
G02*
X133529783Y-97242283I50017J-5D01*
G01*
X133529783Y-102242294D02*
G75*
G02*
X133479806Y-102192294I17J49994D01*
G01*
X134027611Y-116082062D02*
G75*
G02*
X131961137Y-114015590I-1272811J793662D01*
G01*
X134027611Y-116082062D02*
G75*
G02*
X134161816Y-116047918I84889J-52838D01*
G01*
X134161783Y-106043617D02*
G75*
G02*
X134027612Y-106009530I-49283J87117D01*
G01*
X134161784Y-106043617D02*
G75*
G02*
X139833011Y-106043617I2835614J-5002178D01*
G01*
X134504148Y-99072527D02*
G75*
G02*
X134516385Y-99123690I1075652J230227D01*
G01*
X139833011Y-116047976D02*
G75*
G02*
X134161783Y-116047976I-2835614J5002180D01*
G01*
X139833011Y-116047976D02*
G75*
G02*
X139967162Y-116082075I49289J-87024D01*
G01*
X139967183Y-106009531D02*
G75*
G02*
X139832998Y-106043641I-84883J52931D01*
G01*
X139967183Y-106009531D02*
G75*
G02*
X142033667Y-108076018I1272817J-793669D01*
G01*
X141847397Y-104695796D02*
G75*
G02*
X143347404Y-106195796I3J-1500004D01*
G01*
X141999576Y-108210183D02*
G75*
G02*
X141999579Y-113881412I-5002176J-2835617D01*
G01*
X141999577Y-108210184D02*
G75*
G02*
X142033662Y-108076010I87123J49284D01*
G01*
X142033662Y-114015582D02*
G75*
G02*
X139967182Y-116082062I-793622J-1272858D01*
G01*
X142033663Y-114015583D02*
G75*
G02*
X141999555Y-113881398I52937J84883D01*
G01*
X143347397Y-115895796D02*
G75*
G02*
X141847397Y-117395797I-1499997J-4D01*
G01*
X143429783Y-97242295D02*
G75*
G02*
X143479805Y-97292295I17J-50005D01*
G01*
X143479783Y-102192294D02*
G75*
G02*
X143429783Y-102242283I-49983J-6D01*
G01*
X116826666Y-107567418D02*
G75*
G02*
X108826666Y-107567418I-4000000J0D01*
G01*
X108826666Y-107567418D02*
G75*
G02*
X116826666Y-107567418I4000000J0D01*
G01*
X116858999Y-99245000D02*
G75*
G02*
X113661001Y-99245000I-1598999J0D01*
G01*
X113661001Y-99245000D02*
G75*
G02*
X116858999Y-99245000I1598999J0D01*
G01*
X120228179Y-106764594D02*
G75*
G02*
X119478179Y-106764594I-375000J0D01*
G01*
X119478179Y-106764594D02*
G75*
G02*
X120228179Y-106764594I375000J0D01*
G01*
X142247397Y-111045796D02*
G75*
G02*
X131747397Y-111045796I-5250000J0D01*
G01*
X131747397Y-111045796D02*
G75*
G02*
X142247397Y-111045796I5250000J0D01*
G01*
X147339000Y-115755000D02*
G75*
G02*
X144141000Y-115755000I-1599000J0D01*
G01*
X144141000Y-115755000D02*
G75*
G02*
X147339000Y-115755000I1599000J0D01*
G01*
X152209307Y-108065206D02*
G75*
G02*
X144209307Y-108065206I-4000000J0D01*
G01*
X144209307Y-108065206D02*
G75*
G02*
X152209307Y-108065206I4000000J0D01*
G01*
%TD*%
M02*
